<svg width="209" height="90" viewBox="0 0 209 90" fill="none" xmlns="http://www.w3.org/2000/svg">
<path fill-rule="evenodd" clip-rule="evenodd" d="M10.8675 61.5098C11.5047 61.4962 12.1412 61.562 12.0792 61.3353C12.0071 61.0716 11.4901 59.181 12.9263 58.0242C14.4754 56.7765 15.6766 57.6981 15.6122 57.1932C15.5989 57.0888 15.5069 56.3672 15.6458 55.8783C15.9944 54.6518 16.763 54.2542 16.9322 54.0978C17.1176 53.9265 17.025 50.7101 17.1995 49.5297C17.6258 46.6461 17.279 45.5587 19.5221 44.109C21.7108 42.6945 26.0489 41.7933 26.4257 41.3181C27.1759 40.372 26.2972 39.8239 24.9884 37.8852C24.0795 36.539 24.2582 35.8771 23.758 35.4855C21.4617 33.6879 21.2817 31.532 22.2549 30.9039C23.1948 30.2973 23.957 30.8717 23.7371 30.2414C23.6229 29.914 23.4183 28.4163 23.9304 27.1773C24.2523 26.3985 23.5296 26.5951 22.8644 25.3039C20.9562 21.5999 26.5177 15.6599 32.791 16.7942C36.8093 17.5209 41.9211 22.3314 38.5146 26.367C38.1195 26.835 38.5134 26.9484 38.6017 28.0446C38.7569 29.9719 38.1334 30.5746 38.6078 30.5495C40.0007 30.4759 40.6785 31.3742 40.5141 32.2661C40.0396 34.8402 38.2126 35.2884 38.0162 35.9767C37.2112 38.7973 34.9072 39.7082 35.5131 41.0828C35.9569 42.0895 40.8489 42.4749 43.4997 44.8159C44.7458 45.9163 44.8924 48.4879 45.1518 53.8445C45.1847 54.5248 45.7189 54.1307 46.4351 54.4029C48.5924 55.2228 48.706 56.9499 48.7691 57.3637C48.8213 57.7057 49.3221 57.6605 49.346 57.6643C49.9121 57.7531 51.0878 58.536 51.4262 59.2358C51.907 60.2301 51.9643 60.2387 51.8569 61.3333C51.8334 61.5732 52.4595 61.5719 52.8489 61.8136C54.4394 62.8008 53.2303 64.1408 53.097 64.2886C50.2298 67.4661 48.199 70.4126 42.304 71.3591C41.591 71.4736 40.5707 73.9053 37.9922 74.0342C36.6783 74.0999 26.4053 74.0552 25.3977 74.0508C21.6653 74.0345 21.4359 71.5581 20.4661 71.3699C14.8693 70.2835 13.5699 68.6538 10.8554 65.6568C9.43293 64.0862 8.4268 63.3076 9.41311 62.1644C9.80027 61.7156 10.7422 61.5339 10.8675 61.5098Z" fill="white"/>
<path fill-rule="evenodd" clip-rule="evenodd" d="M40.8956 70.8287C39.3317 70.9128 22.56 70.9425 21.4386 70.8006C14.0088 69.8605 12.588 66.178 10.7516 64.5184C10.2727 64.0856 11.122 64.5015 26.5427 65.0161C32.8831 65.2277 45.4173 64.9244 49.8802 64.4256C50.0274 64.4091 50.026 64.4331 51.7266 64.3033C51.7953 64.2981 52.357 64.1363 51.9383 64.5286C49.8538 66.4818 48.57 69.9917 40.8956 70.8286L40.8956 70.8287Z" fill="#7D7D7D"/>
<path fill-rule="evenodd" clip-rule="evenodd" d="M25.4853 31.4775C26.3319 31.1986 27.0395 30.8614 27.1708 30.7989C31.1702 28.893 31.401 27.5915 31.8876 27.9913C34.5371 30.1686 36.8356 31.1331 37.3607 31.4153C37.6131 31.551 38.0732 34.1045 37.1498 36.3368C36.276 38.449 33.221 41.6259 32.7956 42.0467C32.6389 42.2017 32.1984 42.6374 30.0641 42.4084C30.03 42.4047 29.7252 42.7854 27.2907 39.809C24.4271 36.3079 24.7648 35.5659 24.6833 35.3571C24.1795 34.0666 24.5121 32.0959 24.5224 32.0079C24.5422 31.8374 24.5394 31.7697 25.4853 31.4775L25.4853 31.4775Z" fill="#7D7D7D"/>
<path fill-rule="evenodd" clip-rule="evenodd" d="M13.333 63.7883C12.7597 63.745 10.5758 63.6228 10.1648 63.5866C9.51288 63.5293 9.4122 62.3957 10.9534 62.1984C11.0763 62.1827 49.4408 62.1661 51.4641 62.2027C51.6051 62.2053 52.9588 62.2297 52.9872 63.0913C53.0051 63.6343 52.0354 63.5737 51.9894 63.5782C35.2174 65.2044 13.9955 63.8128 13.333 63.7883Z" fill="#7D7D7D"/>
<path fill-rule="evenodd" clip-rule="evenodd" d="M36.0545 50.9512C35.4533 51.0964 35.4467 51.0708 34.8956 51.3565C34.4398 51.5928 34.2253 49.7076 31.5618 49.4436C29.4223 49.2315 28.2135 51.1101 28.0395 51.3805C27.8677 51.6475 27.5519 51.18 26.3675 51.2352C26.2221 51.242 25.8959 51.3963 25.9627 50.9458C26.0907 50.083 26.6278 46.8855 26.687 46.5326C26.7704 46.0364 26.6707 45.8896 26.8872 45.9356C27.109 45.9827 27.8612 48.4566 32.7106 47.443C34.7255 47.0218 35.2243 45.1153 35.3037 45.72C35.3349 45.9581 36.0729 49.4695 36.1414 49.7953C36.343 50.7545 36.4396 50.785 36.297 50.9064C36.282 50.9192 36.2791 50.9097 36.0545 50.9511V50.9512Z" fill="#7D7D7D"/>
<path fill-rule="evenodd" clip-rule="evenodd" d="M40.5448 71.5511C40.8469 71.569 40.9087 71.5173 40.9043 71.6357C40.9027 71.6808 40.8791 71.6651 40.5148 72.0439C39.054 73.5629 38.8028 73.376 32.0905 73.376C23.9096 73.3759 23.6796 73.5433 22.3605 72.2034C22.1919 72.0323 21.5607 71.5077 21.9616 71.5305C23.3627 71.6104 39.5595 71.5689 40.5448 71.5511Z" fill="#7D7D7D"/>
<path fill-rule="evenodd" clip-rule="evenodd" d="M32.3559 46.8083C31.9569 46.8977 30.0291 47.1418 29.2013 46.8459C27.6712 46.2989 26.884 44.9737 27.0237 44.3436C27.2457 43.3412 27.44 41.2691 27.5972 41.2747C27.8125 41.2823 28.8029 43.0321 29.9771 43.0977C32.7547 43.2526 32.8646 43.0811 34.1897 41.5917C34.5163 41.2246 34.5262 42.0118 34.587 42.3035C34.9468 44.0302 35.1628 44.0828 34.6951 45.0221C33.9868 46.4446 32.5855 46.757 32.3558 46.8083H32.3559Z" fill="#7D7D7D"/>
<path fill-rule="evenodd" clip-rule="evenodd" d="M23.075 45.1253C23.2099 43.8423 23.1836 43.8441 23.2887 43.3681C23.3469 43.1041 24.4957 42.8943 26.2941 42.1727C26.7234 42.0004 26.6908 42.1901 26.6854 42.2212C26.1201 45.5071 25.3876 50.2883 25.3341 50.5924C25.2267 51.2035 25.416 51.3392 24.8796 51.6615C24.1089 52.1247 23.7992 52.7208 23.772 52.7532C23.6614 52.8845 22.7624 52.457 22.7523 52.2612C22.7487 52.1915 23.0296 45.8058 23.075 45.1254L23.075 45.1253Z" fill="#7D7D7D"/>
<path fill-rule="evenodd" clip-rule="evenodd" d="M39.1204 46.3611C39.1713 47.5752 39.4352 49.7125 38.7847 51.5573C38.6305 51.9946 38.5321 51.3933 37.287 51.0246C36.98 50.9337 37.0937 50.8032 36.4114 47.5925C36.3322 47.2195 35.4896 43.2541 35.4298 42.9279C35.3015 42.2269 35.1638 41.9478 35.4383 42.0397C35.6729 42.1182 35.6543 42.1669 38.3449 43.0955C38.7476 43.2345 38.8414 43.2077 38.8874 43.6291C39.0009 44.6682 39.048 44.6582 39.1204 46.3611Z" fill="#7D7D7D"/>
<path fill-rule="evenodd" clip-rule="evenodd" d="M29.3603 78.1893C30.3055 78.2633 30.6625 78.5932 30.583 78.3275C30.4864 78.0044 30.2174 77.7258 30.4272 76.4797C30.4545 76.3172 31.0939 74.5388 31.6104 75.191C33.1295 77.1099 31.8313 78.5582 32.1821 78.4633C32.318 78.4265 33.0885 77.972 34.2852 78.3499C34.7723 78.5037 35.7871 79.0625 35.4948 79.355C34.1642 80.6866 32.6052 80.1313 32.3635 80.0453C31.6871 79.8044 33.1278 81.215 31.6961 83.1355C31.3632 83.5821 31.1938 83.4342 30.8941 82.9701C29.6446 81.0346 30.9803 79.841 30.4195 80.0121C29.8893 80.1739 29.4772 80.4093 28.3174 80.0468C28.0305 79.9571 26.9924 79.3936 27.1702 79.1271C27.714 78.3115 29.1703 78.2035 29.3603 78.1894V78.1893Z" fill="white"/>
<path fill-rule="evenodd" clip-rule="evenodd" d="M32.09 58.4134C29.4736 58.5839 29.5626 60.1806 29.2634 59.5755C28.5613 58.1561 27.8446 58.4201 27.7452 57.0193C27.5156 53.786 32.2236 52.8759 33.1305 56.1394C33.3927 57.0828 32.9081 58.4443 32.5309 58.4388C32.4956 58.4383 32.4982 58.437 32.09 58.4134Z" fill="#7D7D7D"/>
<path fill-rule="evenodd" clip-rule="evenodd" d="M44.2982 50.7665C44.4301 52.6838 44.4795 54.2558 44.4705 54.2735C44.2025 54.7982 44.0032 53.8121 43.2623 53.1557C42.0474 52.0792 41.3311 52.6686 41.4165 51.9079C41.4402 51.6968 41.6034 50.2417 41.7269 49.2711C41.9339 47.6453 42.0397 47.0359 41.7059 44.6006C41.6439 44.1479 43.3129 45.4514 43.4958 45.8538C44.0368 47.0437 44.2002 49.785 44.2982 50.7665Z" fill="#7D7D7D"/>
<path fill-rule="evenodd" clip-rule="evenodd" d="M29.2711 23.7265C30.279 23.497 30.2702 23.488 31.2962 23.4306C31.9805 23.3923 31.6539 23.7463 31.5766 23.9126C29.7789 27.7815 25.1885 28.7523 24.5119 28.8954C23.6908 29.069 25.0256 24.9503 29.2711 23.7265Z" fill="#7D7D7D"/>
<path fill-rule="evenodd" clip-rule="evenodd" d="M34.46 53.1416C34.3983 53.5986 34.1902 53.4179 33.7785 53.6217C33.2925 53.8624 33.2938 53.8494 32.8575 54.1599C32.6844 54.283 31.7234 53.3248 30.4157 53.3679C29.1254 53.4105 28.4097 54.2138 28.3287 53.9236C27.5691 51.2026 31.271 48.6458 33.6466 51.1404C34.3635 51.8933 34.4467 52.9693 34.46 53.1416Z" fill="#7D7D7D"/>
<path fill-rule="evenodd" clip-rule="evenodd" d="M33.6772 54.4733C33.782 54.4502 34.4288 54.0173 35.0835 54.0584C38.1504 54.2511 38.0022 57.8737 37.3716 57.9739C34.9584 58.3573 35.0085 59.855 34.6511 59.5589C34.093 59.0966 34.1137 59.0747 33.49 58.6999C33.2974 58.5842 34.3959 57.1525 33.6083 55.4211C33.3732 54.9043 33.0811 54.7001 33.6772 54.4733Z" fill="#7D7D7D"/>
<path fill-rule="evenodd" clip-rule="evenodd" d="M17.8978 49.5297C18.3211 46.0674 18.2205 45.8142 20.0988 44.5635C20.2462 44.4653 20.3119 44.513 20.2933 44.6878C20.0121 47.3409 20.1484 47.3521 20.0324 48.035C19.5311 50.9867 19.8458 52.832 19.7371 52.9463C19.0578 53.6596 19.052 53.6596 18.9681 53.6601C17.8165 53.6663 17.7991 53.7456 17.7349 53.6707C17.661 53.5847 17.7682 50.9557 17.8978 49.5297Z" fill="#7D7D7D"/>
<path fill-rule="evenodd" clip-rule="evenodd" d="M23.9886 61.5005C23.6894 61.4927 23.6248 61.4561 23.668 61.1595C23.789 60.3309 23.27 59.8988 24.4484 58.8883C26.0132 57.5465 29.0405 58.5513 28.8767 61.2406C28.8565 61.5713 28.6827 61.5006 26.1902 61.5005C26.1197 61.5005 25.4075 61.5005 25.3096 61.5058C24.6487 61.5421 24.6573 61.5011 23.9886 61.5005Z" fill="#7D7D7D"/>
<path fill-rule="evenodd" clip-rule="evenodd" d="M33.5002 23.7256C33.9859 23.8949 34.0455 23.8527 34.0599 23.9879C34.081 24.1841 32.3479 26.525 30.2964 28.0913C29.929 28.3718 27.8306 29.974 25.2151 30.8441C24.8318 30.9716 24.7458 30.9831 24.5928 30.604C24.327 29.9459 24.0789 29.6474 24.7796 29.5349C26.112 29.3209 29.5404 28.2135 31.5254 25.3751C32.3563 24.1869 32.3583 23.4604 32.7095 23.5382C33.1127 23.6274 33.1036 23.6362 33.5002 23.7256Z" fill="#7D7D7D"/>
<path fill-rule="evenodd" clip-rule="evenodd" d="M20.4845 50.0607C20.6154 48.8402 20.5989 48.8395 20.6177 48.7345C20.9281 46.9993 20.8079 45.2261 21.0774 44.158C21.1366 43.923 22.5785 43.3768 22.5495 43.634C22.2764 46.0505 22.3472 46.0488 22.2398 48.475C22.0802 52.0823 22.1807 52.2523 21.8762 52.2745C21.2517 52.3199 21.261 52.3447 20.6461 52.466C20.4569 52.5033 20.3338 52.3931 20.4845 50.0607Z" fill="#7D7D7D"/>
<path fill-rule="evenodd" clip-rule="evenodd" d="M43.2743 58.6148C44.4713 58.6884 44.5143 58.6738 45.4513 59.4238C45.905 59.7869 46.6893 61.4982 46.0042 61.5005C45.5957 61.5019 41.0545 61.5173 40.8979 61.4983C40.3543 61.4326 41.1013 58.7668 43.2743 58.6148Z" fill="#7D7D7D"/>
<path fill-rule="evenodd" clip-rule="evenodd" d="M23.7234 54.898C23.8087 54.8949 25.917 54.5692 26.3798 56.8375C26.4937 57.3956 26.4877 57.5674 25.9234 57.6006C24.2287 57.7007 23.4104 59.0483 23.2841 59.0391C22.9792 59.0169 23.2575 58.6542 22.044 57.8176C21.6257 57.5293 21.6717 55.3685 23.7234 54.898V54.898Z" fill="#7D7D7D"/>
<path fill-rule="evenodd" clip-rule="evenodd" d="M40.4568 55.6114C41.0864 55.5642 41.7911 55.4276 42.8348 56.3106C43.323 56.7236 43.8731 57.9127 43.5468 57.9303C42.994 57.9601 42.9684 57.8569 41.7958 58.3765C40.8318 58.8037 40.736 59.6531 40.4877 59.3638C40.4323 59.2994 40.3881 59.2256 40.3317 59.162C39.247 57.9378 38.2342 58.2083 38.3133 57.8037C38.6285 56.1916 39.6986 55.8393 40.4568 55.6114Z" fill="#7D7D7D"/>
<path fill-rule="evenodd" clip-rule="evenodd" d="M47.0424 59.1456C46.6898 58.9022 46.7038 59.1744 46.3464 59.4117C46.0718 58.9197 47.6911 58.3593 47.7639 58.3323C48.2087 58.1675 49.3061 58.3415 49.5185 58.4441C51.3181 59.3129 51.3898 61.2571 51.0871 61.4655C50.9053 61.5906 47.4646 61.5076 47.1497 61.4999C46.8784 61.4934 47.0426 61.3351 46.9257 60.798L46.9879 60.6636C47.6996 60.4537 47.1804 59.395 46.9205 59.9391C46.8498 60.0873 46.9917 60.5175 46.7802 60.5424C46.7295 60.5483 46.8141 60.4909 46.6063 59.9279C46.4653 59.5456 46.7524 59.6556 47.0424 59.3749C47.1319 59.2882 47.0728 59.2746 47.0425 59.1455L47.0424 59.1456Z" fill="#7D7D7D"/>
<path fill-rule="evenodd" clip-rule="evenodd" d="M12.8042 61.0077C12.9338 61.0415 13.366 61.1538 14.4756 61.1179C16.4785 61.053 16.6656 60.0603 16.1506 60.1859C15.6266 60.3138 15.7129 60.815 13.3352 60.6799C12.755 60.6469 12.7621 60.6625 12.7124 60.6595C12.507 60.6468 12.5699 59.8665 12.724 59.485C13.8738 56.6387 18.1101 58.3465 16.9209 61.2331C16.8033 61.5187 16.7205 61.5856 13.0692 61.4974C12.9018 61.4934 12.6154 61.187 12.8042 61.0077Z" fill="#7D7D7D"/>
<path fill-rule="evenodd" clip-rule="evenodd" d="M35.789 61.5005C35.3165 61.429 35.5105 61.2176 35.2865 60.6171C34.8787 59.5239 38.0244 57.2484 39.9895 59.8529C40.1676 60.089 40.2006 60.1125 40.0442 61.337C40.0194 61.5313 39.9141 61.5008 35.7889 61.5005H35.789Z" fill="#7D7D7D"/>
<path fill-rule="evenodd" clip-rule="evenodd" d="M44.8592 54.9901C46.7186 54.6466 47.9251 56.0387 48.083 57.3713C48.1228 57.7075 46.8146 57.6691 46.0237 58.5313C45.5448 59.0533 45.5223 58.4101 44.7787 58.1409C44.2099 57.9349 44.365 57.7533 44.2841 57.4451C43.9756 56.2698 43.3338 55.9953 43.4142 55.77C43.5924 55.2706 44.731 55.0186 44.8593 54.9902L44.8592 54.9901Z" fill="#7D7D7D"/>
<path fill-rule="evenodd" clip-rule="evenodd" d="M41.1873 46.3599C41.204 46.7911 41.2621 48.2895 40.7456 51.7358C40.7387 51.7817 40.6681 52.2526 40.5523 52.2821C39.4873 52.5536 39.4957 52.6263 39.412 52.5827C38.8291 52.2788 40.1003 51.7869 39.8854 47.5956C39.688 43.7462 39.4408 43.4573 39.7489 43.5556C40.9086 43.9257 40.9354 44.0591 40.9568 44.1652C41.1014 44.8838 41.0582 44.8832 41.1872 46.3599H41.1873Z" fill="#7D7D7D"/>
<path fill-rule="evenodd" clip-rule="evenodd" d="M37.4528 29.1171C37.1273 28.8995 35.0984 27.5436 33.6096 26.0869C33.4942 25.9739 33.5254 25.9161 34.6864 24.3777C34.9214 24.0664 36.3163 25.0629 37.2579 26.1315C37.7564 26.6971 38.049 28.3097 37.9142 29.1926C37.8751 29.4491 37.4745 29.1312 37.4528 29.1171Z" fill="#7D7D7D"/>
<path fill-rule="evenodd" clip-rule="evenodd" d="M31.9141 59.1265C32.3154 59.1315 32.3012 59.1709 32.7065 59.2204C34.3396 59.4196 35.0315 61.4818 34.6427 61.4981C34.5111 61.5036 29.7504 61.503 29.7141 61.4979C29.3469 61.4466 29.5535 59.3511 31.9141 59.1265Z" fill="#7D7D7D"/>
<path fill-rule="evenodd" clip-rule="evenodd" d="M21.5163 60.365C21.5085 60.3533 21.4904 60.209 21.2604 60.2213C20.7278 60.2497 20.4327 59.564 20.1398 59.7872C19.8392 60.0163 19.8063 60.0592 19.4772 59.8689C19.1778 59.6957 19.1694 60.3816 17.9092 60.1944C17.6062 60.1494 17.8578 59.1521 18.3897 58.7293C19.7336 57.661 20.5731 58.0701 21.1772 58.2239C23.0683 58.7055 23.2069 61.2405 22.8292 61.474C22.7215 61.5405 22.7165 61.482 21.2477 61.5298C20.7754 61.5452 21.4124 61.341 21.6589 61.1141C22.3822 60.4486 22.4496 60.5249 22.4908 60.4504C22.521 60.3958 22.483 59.823 21.7113 60.4716C21.6462 60.4361 21.5813 60.4006 21.5163 60.3651L21.5163 60.365Z" fill="#7D7D7D"/>
<path fill-rule="evenodd" clip-rule="evenodd" d="M27.1374 56.3949C27.0993 56.5157 27.1 56.5151 27.0962 56.5254C27.0856 56.5546 27.0743 56.5405 27.0657 56.5642L26.9843 56.5747C26.3736 53.8155 24.0794 54.4498 24.0766 54.0222C24.0689 52.8495 25.7736 51.3558 27.5782 52.1225C27.7796 52.2082 27.3788 53.143 27.6741 54.2017C27.7927 54.627 27.7881 54.6475 27.5492 55.0172C27.1404 55.6497 27.1378 56.2799 27.1374 56.3949L27.1374 56.3949Z" fill="#7D7D7D"/>
<path fill-rule="evenodd" clip-rule="evenodd" d="M39.9255 53.1277C40.4853 52.9328 40.883 52.7795 41.7904 53.1034C41.795 53.1051 42.708 53.2983 43.3223 54.3108C43.6671 54.879 43.3257 54.8688 43.0141 55.1708C42.6906 55.4845 42.632 55.3063 42.3856 55.1848C41.0449 54.5236 39.2942 55.0307 38.5386 55.8973C38.3155 56.1532 38.2317 55.5613 38.2477 55.4305C38.4529 53.7603 39.6701 53.2611 39.9255 53.1277H39.9255Z" fill="#7D7D7D"/>
<path fill-rule="evenodd" clip-rule="evenodd" d="M30.4982 39.7872C30.331 39.7708 29.5999 39.6995 28.7726 38.5905C28.4622 38.1744 28.5695 37.913 28.1243 37.9658C27.9275 37.9892 27.7364 37.77 27.9783 37.5933C28.0288 37.5564 28.7632 37.0198 28.7513 37.4671C28.7497 37.527 28.6424 37.6527 28.7198 37.7507C29.1028 38.2357 33.609 38.2392 33.5121 37.5523C33.41 36.8287 34.7372 37.7631 34.2178 37.9421C34.0375 38.0042 33.8899 37.7681 33.7108 38.101C32.8127 39.7704 31.615 39.8152 31.3836 39.8238C31.3345 39.8256 31.3381 39.8211 30.77 39.7875C30.6285 39.772 30.6355 39.771 30.4982 39.7872Z" fill="white"/>
<path fill-rule="evenodd" clip-rule="evenodd" d="M19.5012 54.8128C19.245 54.6175 19.2077 54.6913 18.9594 54.8897C18.7424 55.0633 18.7322 54.7624 18.645 54.6875C18.4453 54.516 18.2687 54.7506 18.3816 55.4139C18.4149 55.6091 18.6379 55.6125 18.6865 55.7021C18.8795 56.0576 18.2273 56.1431 18.1732 56.1502C17.8729 56.1895 17.6723 56.4309 17.7314 56.1344C17.7937 55.8223 18.4972 56.0975 18.2857 55.6903C18.1413 55.4123 18.1686 55.4075 18.1672 55.0909C18.1397 55.0619 18.1122 55.0328 18.0847 55.0038C17.7426 55.0304 17.8466 55.5321 17.5903 55.302C17.3023 55.0435 17.1405 55.3521 17.2324 55.5102C17.4469 55.8793 16.2336 55.7424 16.7645 56.2253C16.7318 56.2745 16.6992 56.3238 16.6665 56.373C16.5495 56.4205 16.5268 56.3911 16.4942 56.4821C16.3434 56.9022 16.9264 56.6472 17.0789 56.8617C17.3656 57.265 17.6215 56.6187 17.8221 56.9293C18.1227 57.395 18.345 56.7169 18.3692 56.6747C18.5054 56.438 18.5741 56.5942 18.7193 56.8312C19.0446 57.3615 19.2643 56.9431 19.1641 56.7437C18.8121 56.0437 19.8093 56.6426 19.9551 56.3232C20.1016 56.0021 19.6093 56.101 19.6116 55.9596C19.6153 55.7316 19.7885 56.006 20.4761 55.8212C20.9054 55.7058 20.9139 57.2832 20.5577 57.31C18.992 57.4281 18.8302 57.3869 17.6152 58.5639C17.3982 58.7742 15.6652 57.5122 16.4392 55.7053C17.1763 53.9846 19.5541 54.085 20.2139 55.0556C20.1614 55.0958 20.109 55.1359 20.0565 55.1761C19.9476 55.0181 19.9506 54.9339 19.6783 55.0183C19.6193 54.9498 19.5602 54.8814 19.5012 54.8129L19.5012 54.8128Z" fill="#7D7D7D"/>
<path fill-rule="evenodd" clip-rule="evenodd" d="M31.3574 21.2629C31.3644 20.9669 31.403 19.3141 31.4574 17.5638C31.4621 17.414 31.5352 17.1831 33.3291 17.6329C33.6575 17.7153 33.4656 18.0215 32.5288 20.9987C32.0526 22.5122 32.1505 22.8319 31.4786 22.7305C31.2692 22.6989 31.3342 22.1334 31.3575 21.2629H31.3574Z" fill="#7D7D7D"/>
<path fill-rule="evenodd" clip-rule="evenodd" d="M26.8851 18.5175C27.1182 18.3898 27.9788 17.8521 28.1121 18.017C28.1277 18.0363 29.5893 22.7189 29.5969 22.7646C29.6287 22.9559 29.1676 23.102 29.0151 22.9305C28.9141 22.8169 26.5054 19.5177 26.327 19.2681C26.0703 18.9087 26.3176 18.8912 26.8851 18.5175Z" fill="#7D7D7D"/>
<path fill-rule="evenodd" clip-rule="evenodd" d="M37.0172 51.6737C37.1798 51.7204 38.3662 52.0606 38.7423 52.8964C38.8719 53.1843 38.3031 53.2283 37.8115 54.3732C37.5868 54.8963 37.3865 53.9153 35.9609 53.5085C35.4057 53.35 35.1743 53.5331 35.1112 52.9622C35.0163 52.1033 35.0517 52.0777 35.1118 52.0341C35.8398 51.5061 36.8636 51.6519 37.0172 51.6738L37.0172 51.6737Z" fill="#7D7D7D"/>
<path fill-rule="evenodd" clip-rule="evenodd" d="M35.2586 18.4496C35.7816 18.7661 36.1669 18.8984 35.908 19.2603C35.6993 19.5519 33.371 22.8062 33.2486 22.8688C33.061 22.9648 32.6818 22.8731 32.7328 22.6785C32.794 22.4449 33.9632 18.7165 34.0711 18.3723C34.3023 17.6353 34.575 18.093 35.2586 18.4495V18.4496Z" fill="#7D7D7D"/>
<path fill-rule="evenodd" clip-rule="evenodd" d="M30.3294 17.3972C30.6324 17.4003 30.6453 17.3585 30.7213 17.4481C30.832 17.5789 30.6032 22.659 30.5974 22.6747C30.3854 23.2445 30.009 21.7555 29.8627 21.272C29.5321 20.18 28.745 17.868 28.805 17.7277C28.8675 17.5815 30.2056 17.4128 30.3294 17.3972Z" fill="#7D7D7D"/>
<path fill-rule="evenodd" clip-rule="evenodd" d="M35.6122 29.7187C34.7236 29.198 34.7265 29.203 33.8745 28.6258C33.6021 28.4412 32.3567 27.5269 32.2897 27.4139C32.2367 27.3245 32.5992 26.9473 32.6329 26.9122C32.9254 26.6078 32.9901 26.4661 33.3 26.7496C37.0324 30.1649 38.0772 29.7576 37.5952 30.5639C37.4539 30.8003 36.505 30.225 35.6121 29.7186L35.6122 29.7187Z" fill="#FCF5E3"/>
<path fill-rule="evenodd" clip-rule="evenodd" d="M25.0474 23.7209C23.4995 23.2486 23.4973 23.2657 23.3641 23.2211C23.2743 23.191 23.0492 23.1156 23.5385 22.0517C23.6769 21.7507 23.8471 21.2696 24.14 21.4759C27.2407 23.6604 27.3746 23.7198 27.2461 23.8168C26.5504 24.3418 26.4614 24.1009 25.0474 23.7209Z" fill="#7D7D7D"/>
<path fill-rule="evenodd" clip-rule="evenodd" d="M22.3049 52.9965C22.3634 53.2375 22.2572 53.6152 22.5643 53.4655C22.6359 53.4307 22.659 53.2584 22.7563 53.1573C22.8099 53.183 23.4044 53.4674 23.33 53.6272C23.2897 53.7138 23.2264 53.6627 23.2034 53.7601C23.1649 53.9234 23.533 54.1898 23.2114 54.3172C22.9325 54.4277 22.9343 54.4189 22.6748 54.5748C22.6352 54.5091 22.5957 54.4433 22.5561 54.3776C22.454 54.1746 22.4213 54.0798 22.2479 54.2254C22.078 54.3682 22.1402 54.4193 22.3157 54.5493C22.3501 54.6134 22.3844 54.6774 22.4187 54.7414C22.068 55.0043 21.9705 54.9819 21.5329 55.7062C21.3088 56.0772 21.3732 54.9466 20.1776 54.1439C19.913 53.9662 19.6513 54 19.8707 53.7752C20.876 52.7452 22.097 52.9855 22.305 52.9965H22.3049Z" fill="#7D7D7D"/>
<path fill-rule="evenodd" clip-rule="evenodd" d="M25.3045 21.4471C24.4515 20.8474 24.4485 20.8512 24.4284 20.8235C24.2883 20.6306 25.4763 19.449 25.6394 19.5424C25.7897 19.6284 27.0888 21.4708 27.2097 21.6422C28.0162 22.786 28.6146 23.4099 28.1269 23.3608C27.8555 23.3335 27.8776 23.2818 25.3045 21.4471Z" fill="#7D7D7D"/>
<path fill-rule="evenodd" clip-rule="evenodd" d="M38.4323 23.2064C37.2389 23.5339 35.9396 24.0436 35.694 23.92C35.3213 23.7326 34.9477 23.5785 35.196 23.4077C38.0722 21.4292 38.1645 21.2068 38.3122 21.461C38.5925 21.9437 39.0536 23.003 38.7776 23.1013C38.6643 23.1416 38.5457 23.166 38.4323 23.2064Z" fill="#7D7D7D"/>
<path fill-rule="evenodd" clip-rule="evenodd" d="M35.0726 22.6554C34.8997 22.7799 33.9423 23.5414 34.0319 23.0261C34.0413 22.9721 35.6808 20.7607 35.8436 20.5351C36.296 19.9085 36.5536 19.3931 36.8153 19.6258C37.9015 20.5921 37.795 20.7241 37.7115 20.8085C37.7106 20.8093 35.1887 22.5791 35.0725 22.6554L35.0726 22.6554Z" fill="#7D7D7D"/>
<path fill-rule="evenodd" clip-rule="evenodd" d="M38.6692 34.3578C38.6472 34.3784 38.3073 34.6955 38.3138 34.4808C38.3587 32.9827 38.3861 32.9802 38.3283 32.796C38.2985 32.7014 38.4144 32.689 38.2005 31.5625C38.1206 31.1419 40.1925 30.8423 39.7645 32.451C39.4405 33.6692 38.9763 34.015 38.6692 34.3578Z" fill="#FBF3DC"/>
<path fill-rule="evenodd" clip-rule="evenodd" d="M31.0344 36.8719C30.3171 36.8354 30.4907 36.435 29.8088 36.2094C29.0961 35.9737 29.9135 34.7228 30.0494 35.3576C30.1025 35.6056 29.8173 35.7453 30.14 35.8366C30.6704 35.9869 30.8435 36.9604 31.5112 36.0862C31.7661 35.7524 32.3356 35.8863 32.0824 35.6243C31.3619 34.8789 30.9579 34.5621 31.2643 32.7046C31.3322 32.2933 31.7691 32.3761 31.7046 32.7041C31.1778 35.3833 32.7921 35.1112 32.678 35.7904C32.5962 36.2771 32.0646 36.0951 31.7854 36.4686C31.5384 36.7989 31.102 36.8622 31.0344 36.872V36.8719Z" fill="white"/>
<path fill-rule="evenodd" clip-rule="evenodd" d="M33.8508 78.5963C33.9554 78.6227 35.422 78.992 34.9689 79.3493C33.5352 80.48 31.3815 79.4309 31.7348 79.1164C32.434 78.4937 33.6769 78.5837 33.8508 78.5963Z" fill="#7D7D7D"/>
<path fill-rule="evenodd" clip-rule="evenodd" d="M29.8002 78.5941C29.9055 78.6203 31.3972 78.992 30.9231 79.3545C29.4375 80.4902 27.3913 79.416 27.6924 79.1237C28.3408 78.4941 29.6267 78.5822 29.8002 78.5941Z" fill="#7D7D7D"/>
<path fill-rule="evenodd" clip-rule="evenodd" d="M31.9827 80.8824C31.9893 81.0476 32.0423 82.3578 31.4475 82.8776C31.0407 83.2331 30.1555 80.8147 31.2491 79.6005C31.2597 79.5887 31.7501 79.4484 31.9827 80.8824Z" fill="#7D7D7D"/>
<path fill-rule="evenodd" clip-rule="evenodd" d="M31.9843 77.5325C31.9675 77.6419 31.6761 79.5337 31.0694 78.5694C30.2014 77.19 31.1443 75.2554 31.4429 75.5459C32.0343 76.1213 31.9901 77.3679 31.9843 77.5325Z" fill="#7D7D7D"/>
<path fill-rule="evenodd" clip-rule="evenodd" d="M24.7787 24.3559C25.8207 24.6583 25.9523 24.7206 25.8157 24.8547C25.2135 25.4461 25.2069 25.4333 24.6677 26.0856C24.2367 26.6072 22.6734 23.8118 23.3663 23.9424C23.482 23.9642 23.4749 23.9857 24.7786 24.3559H24.7787Z" fill="#7D7D7D"/>
<path fill-rule="evenodd" clip-rule="evenodd" d="M20.2055 60.1729C20.758 60.4936 20.9465 60.7661 21.26 60.6337C21.4206 60.566 21.5493 60.614 21.5166 60.3648C21.5816 60.4003 21.6466 60.4358 21.7116 60.4713C21.2244 61.0668 21.0363 61.0483 20.644 61.0787C20.3833 61.0989 20.472 61.4755 20.4582 61.4921C20.4442 61.5091 17.7784 61.5034 17.7405 61.4919C17.5735 61.4413 17.723 60.548 18.0044 60.6064C18.4019 60.6888 18.4035 60.6759 18.7942 60.5608C19.1348 60.4606 18.6917 60.8223 18.7674 60.9922C18.9275 61.3518 19.7541 60.489 20.0186 60.2689L20.2055 60.1729V60.1729Z" fill="#7D7D7D"/>
<path fill-rule="evenodd" clip-rule="evenodd" d="M23.5473 32.5232C22.8025 32.7091 22.9014 33.7687 23.6305 33.873C23.7315 33.8874 24.0602 35.0153 23.4126 34.2581C22.1287 32.7571 22.176 31.6167 22.8413 31.384C23.8627 31.0267 23.8628 31.4681 23.8476 31.744C23.8442 31.8052 23.8094 32.4335 23.7057 32.4969C23.6947 32.5036 23.694 32.4989 23.5473 32.5232Z" fill="#7D7D7D"/>
<path fill-rule="evenodd" clip-rule="evenodd" d="M31.1217 38.5152C32.2094 38.4993 32.2047 38.4692 32.8842 38.3302C33.2943 38.2463 32.2578 39.3051 31.7419 39.3465C30.39 39.4551 30.2786 39.5326 29.2985 38.591C29.0353 38.3381 29.4415 38.5045 31.1218 38.5152H31.1217Z" fill="#7D7D7D"/>
<path fill-rule="evenodd" clip-rule="evenodd" d="M37.0225 24.3482C37.8698 24.0986 37.8615 24.0951 38.7 23.8379C39.0931 23.7173 38.8937 24.7951 38.1386 25.7323C37.8942 26.0356 37.7197 25.4834 36.8199 24.7274C36.4356 24.4045 36.8729 24.3957 37.0225 24.3482Z" fill="#7D7D7D"/>
<path fill-rule="evenodd" clip-rule="evenodd" d="M36.4097 57.4677C35.0761 57.7213 35.9095 56.4568 34.8687 55.113C34.8457 55.0833 34.5023 54.64 34.9083 54.6446C35.1405 54.6472 35.7011 55.3498 35.8768 56.4C35.8865 56.4577 35.9883 57.0662 36.1446 57.0813C36.4078 57.1068 36.6871 56.5472 36.378 55.9755C36.22 55.6833 36.041 55.6158 36.3231 55.443C36.6356 55.2516 37.5347 56.819 36.4097 57.4677Z" fill="white"/>
<path fill-rule="evenodd" clip-rule="evenodd" d="M28.8315 31.4814C30.7086 31.847 30.5542 32.3011 30.4268 32.3727C30.1631 32.5209 30.1531 32.2187 29.3557 32.0262C26.7843 31.4055 26.6244 32.8323 26.1904 32.4469C25.8652 32.1581 26.8324 31.7571 27.0672 31.6483C27.9396 31.244 28.491 31.4479 28.8315 31.4814Z" fill="white"/>
<path fill-rule="evenodd" clip-rule="evenodd" d="M34.0282 31.4841C34.5855 31.4672 34.7668 31.2878 35.7993 31.811C35.8583 31.8409 36.4563 32.1439 36.4853 32.2732C36.6399 32.9636 35.3698 31.9082 34.7333 31.8976C32.7784 31.8651 32.4463 32.5855 32.1987 32.4138C32.0638 32.3202 31.9166 31.8224 34.0282 31.4841Z" fill="white"/>
<path fill-rule="evenodd" clip-rule="evenodd" d="M28.9798 55.7825C29.0283 55.4481 28.9893 55.4345 29.1968 55.1771C29.7449 54.4975 30.4434 54.9695 29.9803 55.1741C28.7484 55.7186 29.9593 56.6622 29.0759 57.0649C28.2058 57.4616 27.9107 56.0871 28.5648 55.9478C29.0281 55.8492 28.5574 56.4942 28.6856 56.6355C28.7342 56.689 29.1137 56.8004 28.9798 55.7824L28.9798 55.7825Z" fill="white"/>
<path fill-rule="evenodd" clip-rule="evenodd" d="M28.3896 32.7244C28.3589 32.7228 27.7636 32.626 27.3412 32.9832C27.0171 33.2574 26.9869 33.6575 26.7094 33.5169C26.0015 33.1581 28.3314 31.3766 29.3488 32.8067C29.7183 33.326 29.3061 33.6857 29.115 33.3183C28.8832 32.8728 28.8792 32.8359 28.3896 32.7243V32.7244Z" fill="white"/>
<path fill-rule="evenodd" clip-rule="evenodd" d="M34.0272 32.5305C33.432 32.6866 33.3829 32.6797 33.125 33.2305C32.9945 33.5092 32.5397 33.4109 32.809 32.8945C33.5294 31.5127 35.9591 32.6555 35.7462 33.2245C35.6708 33.4261 35.3798 32.9334 35.2413 32.8308C34.7025 32.4313 34.0535 32.5309 34.0272 32.5305Z" fill="white"/>
<path fill-rule="evenodd" clip-rule="evenodd" d="M40.9131 56.3254C40.9285 56.7193 41.8902 56.7144 41.9614 56.8337C42.3442 57.4742 40.3677 57.0711 40.366 56.3116C40.3646 55.6864 41.3925 55.9146 40.9131 56.3254Z" fill="white"/>
<path fill-rule="evenodd" clip-rule="evenodd" d="M20.1205 59.3551C19.9816 59.1089 19.9693 59.063 19.9619 59.0355C19.8269 58.5343 19.7712 58.5573 19.764 58.5132C19.7551 58.4588 20.0728 57.9941 20.3479 58.878C20.5066 59.3881 20.7405 58.5415 21.077 58.6342C21.5625 58.768 20.6439 59.6064 20.482 59.5299C20.2977 59.4429 20.3143 59.4187 20.1205 59.3551Z" fill="white"/>
<path fill-rule="evenodd" clip-rule="evenodd" d="M45.5507 55.6314C45.3576 55.5123 45.2534 55.5714 45.272 55.3401C45.3276 54.6504 47.0909 56.1972 46.5993 56.5476C46.211 56.8243 46.4264 56.2204 45.5507 55.6314Z" fill="white"/>
<path fill-rule="evenodd" clip-rule="evenodd" d="M38.5811 33.6876C38.6423 33.2476 38.8151 33.2064 38.5326 32.8557C38.528 32.85 38.4903 32.5734 38.5229 32.5446C38.9694 32.1494 39.5116 33.4783 38.78 33.8355C38.6851 33.8818 38.6914 33.8369 38.6003 33.7756L38.5811 33.6876Z" fill="white"/>
<path fill-rule="evenodd" clip-rule="evenodd" d="M39.9619 53.4025C39.9879 53.3786 39.9391 53.3035 40.2796 53.2109C40.9473 53.0293 42.0111 53.3405 41.4277 53.5874C41.3366 53.626 41.33 53.5247 40.1914 53.5977C40.0609 53.6061 40.088 53.5578 39.9619 53.4025Z" fill="white"/>
<path fill-rule="evenodd" clip-rule="evenodd" d="M21.7839 59.4418C22.0365 59.4487 22.0993 59.3498 22.2129 59.5754C22.3757 59.8987 21.421 59.8902 21.1694 59.9071C20.9408 59.9226 20.8039 59.7405 20.9298 59.5943C21.0924 59.4055 21.137 59.4979 21.7839 59.4418Z" fill="white"/>
<path fill-rule="evenodd" clip-rule="evenodd" d="M47.6051 61.139C47.5872 61.1145 47.4357 60.9071 47.4318 60.801C47.4305 60.7653 47.4559 60.1585 47.8786 60.7849C47.9818 60.9379 48.2062 60.7587 48.2985 60.7667C48.6721 60.799 48.348 61.6211 47.6051 61.139Z" fill="white"/>
<path fill-rule="evenodd" clip-rule="evenodd" d="M39.2866 54.4377C39.2592 54.4569 38.8467 54.7454 38.874 54.3743C38.8959 54.0755 39.9498 53.1108 39.8313 53.7552C39.8182 53.8264 39.8027 53.8186 39.2866 54.4377L39.2866 54.4377Z" fill="white"/>
<path fill-rule="evenodd" clip-rule="evenodd" d="M19.3376 59.5784C19.1577 59.69 19.1391 59.7826 18.9861 59.6398C18.7263 59.3972 18.7278 59.3954 18.7089 59.3857C18.0851 59.0659 18.6281 58.8897 18.7936 58.9511C19.2081 59.1047 19.139 59.1891 19.3376 59.5784Z" fill="white"/>
<path fill-rule="evenodd" clip-rule="evenodd" d="M50.1492 60.3532C49.9693 60.437 49.97 60.4357 49.9549 60.4436C49.8972 60.4739 49.9177 60.4894 49.8594 60.5201C49.8554 60.3286 49.418 59.9481 49.651 59.5862C49.9763 59.081 49.9901 59.778 50.1492 60.3532Z" fill="white"/>
<path fill-rule="evenodd" clip-rule="evenodd" d="M19.9246 59.4756C19.7292 59.7526 19.6537 59.5841 19.509 59.5277C19.3802 59.2323 19.1579 58.8327 19.4071 58.6867C19.6369 58.552 19.5841 58.7547 19.9246 59.4756Z" fill="white"/>
<path fill-rule="evenodd" clip-rule="evenodd" d="M34.2859 58.6113C33.6235 58.1195 34.2784 58.0895 34.2855 58.0922C34.2858 58.0923 34.8027 58.414 34.816 58.4289C34.846 58.4623 35.0034 58.982 34.2859 58.6112V58.6113Z" fill="white"/>
<path fill-rule="evenodd" clip-rule="evenodd" d="M44.4192 55.7991C43.8163 55.7209 44.0747 55.4794 44.1068 55.4613C44.2673 55.3705 44.6553 55.3575 44.7831 55.4001C44.8241 55.4137 45.165 55.7414 44.4192 55.7991Z" fill="white"/>
<path fill-rule="evenodd" clip-rule="evenodd" d="M48.2992 59.6562C48.2506 60.3796 47.8801 59.8251 47.8267 59.7758C47.2751 59.2673 48.0103 59.2592 48.2005 59.4859C48.2005 59.4859 48.2913 59.6426 48.2992 59.6562Z" fill="white"/>
<path fill-rule="evenodd" clip-rule="evenodd" d="M48.7314 59.856C49.3934 60.1463 49.1268 60.6573 48.8204 60.4529C48.0924 59.9674 48.6836 59.8624 48.7314 59.856Z" fill="white"/>
<path fill-rule="evenodd" clip-rule="evenodd" d="M50.1491 60.3533C50.1863 60.387 50.5179 60.6874 49.9549 60.9493C49.6788 61.0778 49.3358 60.754 49.8592 60.5202C49.9175 60.4895 49.8971 60.474 49.9547 60.4437C49.9699 60.4357 49.9691 60.437 50.1491 60.3533Z" fill="white"/>
<path fill-rule="evenodd" clip-rule="evenodd" d="M47.223 58.9478C47.737 58.4246 48.0117 58.8971 48.0139 58.9542C48.0181 59.0613 47.366 59.4732 47.223 58.9478Z" fill="white"/>
<path fill-rule="evenodd" clip-rule="evenodd" d="M49.3421 59.0489C49.785 59.6419 49.2073 59.5372 49.1199 59.4499C48.7905 59.1213 48.8905 58.9913 48.9165 58.9575C49.0871 58.7357 49.1389 58.8599 49.3421 59.0489Z" fill="white"/>
<path fill-rule="evenodd" clip-rule="evenodd" d="M42.6484 59.1163C43.0775 58.9342 43.1205 59.3083 42.8071 59.5314C42.6002 59.6787 42.1718 59.4908 42.6484 59.1163Z" fill="white"/>
<path fill-rule="evenodd" clip-rule="evenodd" d="M41.7118 59.9231C41.7236 59.8921 41.8828 59.4749 42.0966 59.7678C42.3039 60.0517 41.7743 60.5518 41.7118 59.9231Z" fill="white"/>
<path fill-rule="evenodd" clip-rule="evenodd" d="M30.4983 39.7873C30.6356 39.7711 30.6286 39.7722 30.7701 39.7877C30.591 40.11 31.1674 40.0178 31.1908 40.0252C31.4722 40.1137 30.4961 40.5359 30.4983 39.7873Z" fill="white"/>
<path fill-rule="evenodd" clip-rule="evenodd" d="M20.2143 55.0552C20.3807 55.2728 20.4332 55.3857 20.1081 55.49C19.6934 55.623 19.7671 55.3939 19.7902 55.38C19.935 55.2926 19.938 55.3055 20.0569 55.1756C20.1094 55.1355 20.1619 55.0953 20.2143 55.0552Z" fill="white"/>
<path fill-rule="evenodd" clip-rule="evenodd" d="M19.5015 54.8127C19.5605 54.8812 19.6196 54.9497 19.6786 55.0181C19.4443 55.2329 19.1038 55.459 19.0513 55.4939C19.0047 55.503 18.9582 55.5122 18.9116 55.5214C19.1304 54.947 19.4142 55.1343 19.5247 54.8999C19.5375 54.8727 19.4887 54.8399 19.5015 54.8127Z" fill="white"/>
<path fill-rule="evenodd" clip-rule="evenodd" d="M22.3046 52.9966C22.558 53.0182 22.5642 52.998 22.756 53.1574C22.6588 53.2585 22.6357 53.4307 22.564 53.4656C22.2569 53.6153 22.3631 53.2376 22.3046 52.9966Z" fill="white"/>
<path fill-rule="evenodd" clip-rule="evenodd" d="M45.4746 60.2773C45.8764 60.6446 45.3273 60.8314 45.1924 60.5493C45.0448 60.2407 45.4433 60.2746 45.4746 60.2773Z" fill="white"/>
<path fill-rule="evenodd" clip-rule="evenodd" d="M23.5717 33.6903C23.4424 33.112 23.524 32.7325 23.703 32.9887C23.7641 33.076 23.7073 33.6453 23.6617 33.7065C23.6435 33.7309 23.5899 33.6658 23.5717 33.6903Z" fill="#F2E1B3"/>
<path fill-rule="evenodd" clip-rule="evenodd" d="M23.0902 55.9573C23.1038 55.9338 23.2476 55.6854 23.4056 55.8308C23.6054 56.0146 23.2354 56.4383 23.0902 55.9573Z" fill="white"/>
<path fill-rule="evenodd" clip-rule="evenodd" d="M24.8688 55.6064C25.3014 55.741 24.9948 56.11 24.77 55.9726C24.4899 55.8015 24.8418 55.6204 24.8688 55.6064Z" fill="white"/>
<path fill-rule="evenodd" clip-rule="evenodd" d="M33.4109 51.9946C33.3839 51.9805 32.997 51.7788 33.3131 51.627C33.4815 51.5461 33.8542 51.8112 33.4109 51.9946Z" fill="white"/>
<path fill-rule="evenodd" clip-rule="evenodd" d="M27.1934 52.5195C27.1839 52.5485 27.0533 52.946 26.8435 52.6711C26.7384 52.5334 26.9498 52.0814 27.1934 52.5195Z" fill="white"/>
<path fill-rule="evenodd" clip-rule="evenodd" d="M29.3589 52.5893C29.3292 52.5801 28.9556 52.4633 29.2413 52.2184C29.3321 52.1406 29.8443 52.2867 29.3589 52.5893Z" fill="white"/>
<path fill-rule="evenodd" clip-rule="evenodd" d="M24.1623 60.2957C24.1883 60.3129 24.5309 60.5405 24.2338 60.6787C24.0335 60.7718 23.7384 60.4022 24.1623 60.2957Z" fill="white"/>
<path fill-rule="evenodd" clip-rule="evenodd" d="M36.8367 53.1379C36.8191 53.1595 36.5913 53.4378 36.488 53.1438C36.4135 52.9316 36.8092 52.5948 36.8367 53.1379Z" fill="white"/>
<path fill-rule="evenodd" clip-rule="evenodd" d="M43.7166 60.3526C43.3231 60.1028 43.7516 59.8755 43.8877 60.0134C44.1402 60.2692 43.7464 60.3467 43.7166 60.3526Z" fill="white"/>
<path fill-rule="evenodd" clip-rule="evenodd" d="M25.6654 56.488C25.8393 56.0452 26.0844 56.4204 26.0302 56.5848C25.9017 56.9755 25.6785 56.5152 25.6654 56.488Z" fill="white"/>
<path fill-rule="evenodd" clip-rule="evenodd" d="M24.8685 57.3754C24.8435 57.3623 24.6132 57.2408 24.7367 57.0482C24.8787 56.8267 25.3678 57.2187 24.8685 57.3754Z" fill="white"/>
<path fill-rule="evenodd" clip-rule="evenodd" d="M32.1622 57.5428C31.9717 57.9822 31.6262 57.428 31.9031 57.3424C32.0919 57.2839 32.0856 57.3577 32.1622 57.5428Z" fill="white"/>
<path fill-rule="evenodd" clip-rule="evenodd" d="M25.5737 52.5151C25.6012 52.5294 25.9943 52.7343 25.6699 52.89C25.5046 52.9693 25.1216 52.7261 25.5737 52.5151Z" fill="white"/>
<path fill-rule="evenodd" clip-rule="evenodd" d="M27.7248 60.7172C27.9692 60.2459 28.1773 60.7196 28.08 60.8314C27.9069 61.0304 27.8267 60.9595 27.7248 60.7172Z" fill="white"/>
<path fill-rule="evenodd" clip-rule="evenodd" d="M21.6972 53.7555C21.9138 53.7489 21.9953 53.72 21.982 53.9355C21.9626 54.2492 21.4124 54.1089 21.6972 53.7555Z" fill="white"/>
<path fill-rule="evenodd" clip-rule="evenodd" d="M27.1572 58.9304C27.6327 59.1083 27.2231 59.3826 27.074 59.3002C26.7549 59.1237 27.1299 58.9435 27.1572 58.9304Z" fill="white"/>
<path fill-rule="evenodd" clip-rule="evenodd" d="M37.4661 53.3311C37.4929 53.3346 37.7729 53.3718 37.7008 53.5745C37.589 53.8889 37.1083 53.5894 37.4661 53.3311Z" fill="white"/>
<path fill-rule="evenodd" clip-rule="evenodd" d="M25.0419 59.3059C25.1805 58.8698 25.4784 59.1939 25.3938 59.3921C25.232 59.7709 25.0529 59.3327 25.0419 59.3059Z" fill="white"/>
<path fill-rule="evenodd" clip-rule="evenodd" d="M38.3952 52.9637C38.3807 52.9896 38.1692 53.3703 38.0304 53.0345C37.986 52.9272 38.1774 52.4311 38.3952 52.9637Z" fill="white"/>
<path fill-rule="evenodd" clip-rule="evenodd" d="M37.3763 52.6878C36.9756 52.441 37.4173 52.2017 37.5459 52.3528C37.712 52.5478 37.6159 52.5937 37.3763 52.6878Z" fill="white"/>
<path fill-rule="evenodd" clip-rule="evenodd" d="M22.6015 57.5161C22.5884 57.4906 22.4433 57.2081 22.6592 57.1637C22.8863 57.1171 23.1155 57.6222 22.6015 57.5161Z" fill="white"/>
<path fill-rule="evenodd" clip-rule="evenodd" d="M44.7136 59.5716C44.9648 59.0814 45.1135 59.5673 45.0668 59.6745C44.9121 60.0298 44.7253 59.5986 44.7136 59.5716Z" fill="white"/>
<path fill-rule="evenodd" clip-rule="evenodd" d="M36.629 52.1685C36.3676 52.6209 36.1562 52.1458 36.3186 51.9983C36.5046 51.8294 36.6193 52.1419 36.629 52.1685Z" fill="white"/>
<path fill-rule="evenodd" clip-rule="evenodd" d="M29.5361 58.6888C29.5085 58.6805 29.1609 58.5766 29.384 58.3617C29.5349 58.2163 29.9662 58.4627 29.5361 58.6888Z" fill="white"/>
<path fill-rule="evenodd" clip-rule="evenodd" d="M44.5758 60.8212C44.5841 60.8491 44.6835 61.1788 44.4197 61.1501C44.2879 61.1358 44.0365 60.6439 44.5758 60.8212Z" fill="white"/>
<path fill-rule="evenodd" clip-rule="evenodd" d="M31.6464 60.363C31.6388 60.3908 31.5421 60.7446 31.3212 60.5158C31.2321 60.4235 31.3262 59.8816 31.6464 60.363Z" fill="white"/>
<path fill-rule="evenodd" clip-rule="evenodd" d="M30.9538 59.9222C30.7965 60.4095 30.4743 59.9645 30.6485 59.8052C30.8168 59.6513 30.8799 59.7078 30.9538 59.9222Z" fill="white"/>
<path fill-rule="evenodd" clip-rule="evenodd" d="M32.5302 60.885C33.0074 61.0288 32.619 61.3181 32.4495 61.2326C32.1434 61.0781 32.5047 60.8977 32.5302 60.885Z" fill="white"/>
<path fill-rule="evenodd" clip-rule="evenodd" d="M35.6055 53.1248C35.5753 53.1235 35.1951 53.1075 35.3786 52.8221C35.4817 52.6619 35.9319 52.8354 35.6055 53.1248Z" fill="white"/>
<path fill-rule="evenodd" clip-rule="evenodd" d="M25.238 61.1578C25.2216 61.1803 25.0343 61.4385 24.8968 61.2271C24.7947 61.0702 25.1022 60.6109 25.238 61.1578Z" fill="white"/>
<path fill-rule="evenodd" clip-rule="evenodd" d="M32.7941 50.9398C32.4943 51.3515 32.2831 50.7675 32.5441 50.7127C32.7505 50.6694 32.7521 50.7368 32.7941 50.9398Z" fill="white"/>
<path fill-rule="evenodd" clip-rule="evenodd" d="M21.2861 53.749C21.2804 53.7787 21.1913 54.2502 20.9434 53.9105C20.9063 53.8596 20.9327 53.3757 21.2861 53.749Z" fill="white"/>
<path fill-rule="evenodd" clip-rule="evenodd" d="M26.0802 54.2814C26.3864 53.8639 26.4724 54.3444 26.4138 54.4336C26.1946 54.768 26.0869 54.3099 26.0802 54.2814Z" fill="white"/>
<path fill-rule="evenodd" clip-rule="evenodd" d="M32.6258 56.803C32.1454 56.3029 32.7865 56.4666 32.8011 56.4825C32.985 56.6832 32.6535 56.7938 32.6258 56.803Z" fill="white"/>
<path fill-rule="evenodd" clip-rule="evenodd" d="M33.5272 53.406C33.3455 53.6424 33.1619 53.7044 33.1601 53.4055C33.1596 53.3096 33.2495 53.2244 33.3211 53.216C33.485 53.1969 33.468 53.2469 33.5272 53.406Z" fill="white"/>
<path fill-rule="evenodd" clip-rule="evenodd" d="M43.8078 59.2117C43.7508 59.069 43.6778 59.0542 43.7892 58.9419C43.8717 58.8587 44.0326 58.8895 44.0713 58.9504C44.295 59.3026 43.837 59.2172 43.8078 59.2117Z" fill="white"/>
<path fill-rule="evenodd" clip-rule="evenodd" d="M22.5562 54.3777C22.445 54.4895 22.4523 54.4851 22.3159 54.5493C22.1404 54.4193 22.0781 54.3682 22.2481 54.2254C22.4214 54.0798 22.4541 54.1746 22.5562 54.3777Z" fill="white"/>
<path fill-rule="evenodd" clip-rule="evenodd" d="M33.1176 59.828C33.2483 59.6785 33.2737 59.6093 33.4164 59.7406C33.5961 59.9059 33.2284 60.2756 33.1176 59.828Z" fill="white"/>
<path fill-rule="evenodd" clip-rule="evenodd" d="M16.7645 56.2251C17.2346 56.0459 17.2632 56.1015 17.2823 56.1389C17.3965 56.3614 16.7193 56.372 16.6666 56.3728C16.6992 56.3236 16.7318 56.2744 16.7645 56.2251Z" fill="white"/>
<path fill-rule="evenodd" clip-rule="evenodd" d="M22.5563 54.3777C22.5959 54.4434 22.6355 54.5091 22.6751 54.5748C22.5557 54.6788 22.5522 54.6637 22.4189 54.7415C22.3846 54.6775 22.3502 54.6134 22.3159 54.5494C22.4524 54.4851 22.4451 54.4895 22.5563 54.3777L22.5563 54.3777Z" fill="white"/>
<path fill-rule="evenodd" clip-rule="evenodd" d="M26.9818 57.6324C27.0227 57.5033 27.0111 57.4377 27.1352 57.4944C27.2629 57.5527 27.1793 57.9414 26.9818 57.6324Z" fill="white"/>
<path fill-rule="evenodd" clip-rule="evenodd" d="M27.1373 56.3948C27.1361 56.4147 27.1216 56.6432 27.1216 56.6432C27.0963 56.6737 27.0282 56.6139 27.0029 56.6443L27.0656 56.564C27.0742 56.5403 27.0855 56.5545 27.0961 56.5252C27.0999 56.5149 27.0992 56.5155 27.1373 56.3948H27.1373Z" fill="#DCB344"/>
<path fill-rule="evenodd" clip-rule="evenodd" d="M20.2063 60.1733L20.0185 60.2698C20.1022 60.1244 20.0948 60.1162 20.1089 60.1128C20.1461 60.1038 20.1691 60.1823 20.2063 60.1733Z" fill="#EDD698"/>
<path fill-rule="evenodd" clip-rule="evenodd" d="M26.9843 56.5745L27.0657 56.564L27.003 56.6442L26.9843 56.5745Z" fill="#DAAE39"/>
<path d="M66.4655 48.6736C65.1154 48.6736 63.8906 48.4022 62.7911 47.8594C61.7055 47.3027 60.8426 46.4815 60.2023 45.3959C59.5621 44.3103 59.242 42.9812 59.242 41.4084C59.242 40.2115 59.4369 39.1607 59.8266 38.256C60.2163 37.3513 60.7452 36.5928 61.4132 35.9804C62.0952 35.368 62.8746 34.9087 63.7514 34.6025C64.6422 34.2963 65.5817 34.1432 66.5698 34.1432C67.3632 34.1432 68.0939 34.2337 68.7619 34.4146C69.43 34.5956 70.0563 34.8461 70.6409 35.1662L70.7244 37.7341H70.5156L69.4718 36.0639C69.3326 35.7995 69.1795 35.5629 69.0125 35.3541C68.8454 35.1314 68.6367 34.9644 68.3861 34.853C68.1774 34.7556 67.9686 34.686 67.7598 34.6443C67.565 34.5886 67.3145 34.5608 67.0083 34.5608C66.201 34.5608 65.4634 34.7765 64.7953 35.2079C64.1411 35.6394 63.6123 36.3562 63.2086 37.3583C62.8189 38.3465 62.6241 39.7035 62.6241 41.4293C62.6241 43.1412 62.812 44.4982 63.1878 45.5003C63.5636 46.4885 64.0716 47.1983 64.7118 47.6298C65.3659 48.0473 66.0966 48.2561 66.9039 48.2561C67.3493 48.2561 67.7042 48.2283 67.9686 48.1726C68.2331 48.103 68.4975 48.0056 68.7619 47.8803C69.0264 47.769 69.2282 47.6089 69.3674 47.4001C69.5066 47.1775 69.6318 46.9408 69.7432 46.6903L70.6617 44.6444H70.8705L70.8079 47.6298C70.2233 47.936 69.5692 48.1865 68.8454 48.3814C68.1217 48.5762 67.3284 48.6736 66.4655 48.6736ZM75.0085 48.611C74.2012 48.611 73.5192 48.3814 72.9625 47.9221C72.4197 47.4628 72.1483 46.8017 72.1483 45.9387C72.1483 45.2846 72.4823 44.6861 73.1504 44.1433C73.8185 43.5866 74.8693 43.1691 76.3028 42.8907C76.5255 42.8489 76.7761 42.8072 77.0544 42.7654C77.3328 42.7098 77.6251 42.6541 77.9313 42.5984V40.9491C77.9313 40.0027 77.8129 39.3416 77.5763 38.9658C77.3537 38.5761 76.9987 38.3813 76.5116 38.3813C76.1776 38.3813 75.9131 38.4926 75.7183 38.7153C75.5234 38.9241 75.3982 39.2929 75.3425 39.8218L75.3007 40.0514C75.2729 40.6499 75.1268 41.0883 74.8623 41.3667C74.5979 41.645 74.2708 41.7842 73.8811 41.7842C73.5192 41.7842 73.22 41.6729 72.9834 41.4502C72.7468 41.2275 72.6285 40.9283 72.6285 40.5525C72.6285 39.9818 72.8233 39.5017 73.213 39.112C73.6167 38.7222 74.1455 38.43 74.7997 38.2351C75.4538 38.0403 76.1637 37.9428 76.9292 37.9428C78.1679 37.9428 79.1212 38.249 79.7893 38.8614C80.4713 39.4599 80.8123 40.4411 80.8123 41.8051V46.4189C80.8123 47.0452 81.1046 47.3584 81.6891 47.3584H82.1484L82.3363 47.5254C82.0719 47.8594 81.7796 48.1169 81.4595 48.2979C81.1533 48.4788 80.7149 48.5693 80.1442 48.5693C79.5318 48.5693 79.0447 48.4301 78.6828 48.1517C78.3349 47.8594 78.1052 47.4767 77.9939 47.0035C77.5763 47.4489 77.1449 47.8316 76.6995 48.1517C76.268 48.4579 75.7044 48.611 75.0085 48.611ZM76.282 47.3375C76.5603 47.3375 76.8178 47.2749 77.0544 47.1496C77.3049 47.0104 77.5972 46.8017 77.9313 46.5233V43.016C77.7921 43.0438 77.6529 43.0716 77.5137 43.0995C77.3745 43.1273 77.2145 43.1551 77.0335 43.183C76.3933 43.35 75.8783 43.6353 75.4886 44.0389C75.1129 44.4286 74.925 44.9575 74.925 45.6256C74.925 46.1962 75.0572 46.6277 75.3216 46.92C75.5861 47.1983 75.9062 47.3375 76.282 47.3375ZM82.9677 48.2979V48.0891L83.2183 48.0056C83.7193 47.8386 83.9698 47.4906 83.9698 46.9617V35.7925C83.9698 35.5141 83.9142 35.3054 83.8028 35.1662C83.6915 35.0131 83.4966 34.9017 83.2183 34.8322L82.9469 34.7695V34.5608L86.7674 33.663L87.0179 33.8509L86.9344 36.7737V43.9137C86.9344 44.4286 86.9344 44.9436 86.9344 45.4586C86.9483 45.9596 86.9552 46.4607 86.9552 46.9617C86.9552 47.2401 87.0109 47.4697 87.1223 47.6507C87.2336 47.8177 87.4215 47.9429 87.6859 48.0265L87.9573 48.0891V48.2979H82.9677ZM94.1954 48.611C93.249 48.611 92.386 48.4092 91.6066 48.0056C90.8411 47.588 90.2288 46.9896 89.7695 46.2101C89.3241 45.4168 89.1014 44.4495 89.1014 43.3082C89.1014 42.1809 89.345 41.2205 89.8321 40.4272C90.3331 39.62 90.9942 39.0076 91.8154 38.59C92.6505 38.1586 93.5621 37.9428 94.5503 37.9428C95.3575 37.9428 96.0395 38.0751 96.5963 38.3395C97.153 38.6039 97.5775 38.9519 97.8698 39.3834C98.162 39.8009 98.3082 40.2393 98.3082 40.6986C98.3082 41.0883 98.1899 41.3945 97.9533 41.6172C97.7167 41.826 97.4105 41.9304 97.0347 41.9304C96.631 41.9304 96.304 41.7842 96.0535 41.4919C95.8029 41.1997 95.6568 40.8169 95.615 40.3437C95.6011 40.0375 95.6081 39.78 95.6359 39.5712C95.6637 39.3486 95.6637 39.1259 95.6359 38.9032C95.5802 38.6666 95.4898 38.5135 95.3645 38.4439C95.2532 38.3604 95.0931 38.3186 94.8843 38.3186C94.0353 38.3186 93.3742 38.6875 92.901 39.4251C92.4417 40.1628 92.2121 41.3388 92.2121 42.9533C92.2121 44.359 92.4696 45.4377 92.9845 46.1893C93.5134 46.9269 94.3207 47.2958 95.4063 47.2958C96.0604 47.2958 96.5893 47.1775 96.9929 46.9408C97.3965 46.7042 97.7862 46.3493 98.162 45.8761L98.3708 46.0431C98.0229 46.8643 97.487 47.4976 96.7633 47.9429C96.0395 48.3883 95.1836 48.611 94.1954 48.611ZM103.13 48.611C102.587 48.611 102.086 48.5066 101.627 48.2979C101.181 48.0891 100.826 47.755 100.562 47.2958C100.311 46.8225 100.193 46.2032 100.207 45.4377L100.27 40.0723C100.27 39.7522 100.214 39.5225 100.103 39.3834C99.9912 39.2442 99.8172 39.1467 99.5806 39.0911L99.3301 39.0076V38.7988L103.067 38.0681L103.276 38.2769L103.171 41.2414V46.2728C103.171 46.7182 103.297 47.0452 103.547 47.254C103.812 47.4628 104.139 47.5672 104.528 47.5672C104.918 47.5672 105.266 47.5115 105.572 47.4001C105.878 47.2888 106.185 47.1218 106.491 46.8991L106.574 40.0932C106.574 39.7731 106.526 39.5504 106.428 39.4251C106.331 39.2859 106.15 39.1885 105.885 39.1328L105.677 39.0702V38.8614L109.33 38.0681L109.539 38.2769L109.476 41.2414V46.8991C109.476 47.2053 109.518 47.4419 109.602 47.6089C109.685 47.7759 109.866 47.9151 110.144 48.0265L110.353 48.0891V48.2979L106.7 48.5066L106.512 47.2749C106.052 47.6507 105.551 47.9708 105.009 48.2352C104.48 48.4857 103.853 48.611 103.13 48.611ZM115.302 48.611C114.411 48.611 113.715 48.3883 113.214 47.9429C112.727 47.4976 112.484 46.7877 112.484 45.8135V38.6735H111.043V38.4648L111.544 38.3813C111.976 38.2838 112.344 38.1446 112.651 37.9637C112.971 37.7828 113.284 37.5392 113.59 37.233L115.302 35.3332H115.511L115.448 38.256H117.786V38.6735H115.427V46.1893C115.427 46.6764 115.532 47.0452 115.74 47.2958C115.963 47.5463 116.241 47.6715 116.576 47.6715C116.868 47.6715 117.125 47.602 117.348 47.4628C117.571 47.3097 117.793 47.1079 118.016 46.8573L118.225 47.0661C117.946 47.5393 117.564 47.9151 117.077 48.1935C116.589 48.4718 115.998 48.611 115.302 48.611ZM122.964 48.611C122.074 48.611 121.378 48.3883 120.877 47.9429C120.389 47.4976 120.146 46.7877 120.146 45.8135V38.6735H118.705V38.4648L119.206 38.3813C119.638 38.2838 120.007 38.1446 120.313 37.9637C120.633 37.7828 120.946 37.5392 121.252 37.233L122.964 35.3332H123.173L123.11 38.256H125.449V38.6735H123.09V46.1893C123.09 46.6764 123.194 47.0452 123.403 47.2958C123.625 47.5463 123.904 47.6715 124.238 47.6715C124.53 47.6715 124.788 47.602 125.01 47.4628C125.233 47.3097 125.456 47.1079 125.678 46.8573L125.887 47.0661C125.609 47.5393 125.226 47.9151 124.739 48.1935C124.252 48.4718 123.66 48.611 122.964 48.611ZM129.728 48.611C128.921 48.611 128.239 48.3814 127.682 47.9221C127.14 47.4628 126.868 46.8017 126.868 45.9387C126.868 45.2846 127.202 44.6861 127.87 44.1433C128.538 43.5866 129.589 43.1691 131.023 42.8907C131.245 42.8489 131.496 42.8072 131.774 42.7654C132.053 42.7098 132.345 42.6541 132.651 42.5984V40.9491C132.651 40.0027 132.533 39.3416 132.296 38.9658C132.074 38.5761 131.719 38.3813 131.231 38.3813C130.897 38.3813 130.633 38.4926 130.438 38.7153C130.243 38.9241 130.118 39.2929 130.062 39.8218L130.021 40.0514C129.993 40.6499 129.847 41.0883 129.582 41.3667C129.318 41.645 128.991 41.7842 128.601 41.7842C128.239 41.7842 127.94 41.6729 127.703 41.4502C127.467 41.2275 127.348 40.9283 127.348 40.5525C127.348 39.9818 127.543 39.5017 127.933 39.112C128.337 38.7222 128.865 38.43 129.52 38.2351C130.174 38.0403 130.884 37.9428 131.649 37.9428C132.888 37.9428 133.841 38.249 134.509 38.8614C135.191 39.4599 135.532 40.4411 135.532 41.8051V46.4189C135.532 47.0452 135.824 47.3584 136.409 47.3584H136.868L137.056 47.5254C136.792 47.8594 136.499 48.1169 136.179 48.2979C135.873 48.4788 135.435 48.5693 134.864 48.5693C134.252 48.5693 133.765 48.4301 133.403 48.1517C133.055 47.8594 132.825 47.4767 132.714 47.0035C132.296 47.4489 131.865 47.8316 131.419 48.1517C130.988 48.4579 130.424 48.611 129.728 48.611ZM131.002 47.3375C131.28 47.3375 131.538 47.2749 131.774 47.1496C132.025 47.0104 132.317 46.8017 132.651 46.5233V43.016C132.512 43.0438 132.373 43.0716 132.234 43.0995C132.094 43.1273 131.934 43.1551 131.753 43.183C131.113 43.35 130.598 43.6353 130.209 44.0389C129.833 44.4286 129.645 44.9575 129.645 45.6256C129.645 46.1962 129.777 46.6277 130.041 46.92C130.306 47.1983 130.626 47.3375 131.002 47.3375ZM146.841 48.6736C146.075 48.6736 145.296 48.5762 144.503 48.3814C143.709 48.2004 143.048 47.9569 142.519 47.6507L142.624 44.8114H142.833L143.48 46.1684C143.675 46.5581 143.883 46.906 144.106 47.2122C144.329 47.5045 144.635 47.7342 145.025 47.9012C145.303 48.0404 145.567 48.1378 145.818 48.1935C146.082 48.2352 146.375 48.2561 146.695 48.2561C147.544 48.2561 148.212 48.0265 148.699 47.5672C149.2 47.1079 149.451 46.5163 149.451 45.7926C149.451 45.1106 149.284 44.5817 148.95 44.206C148.615 43.8162 148.08 43.4405 147.342 43.0786L146.486 42.7028C145.289 42.1739 144.35 41.5685 143.668 40.8865C143 40.1906 142.666 39.272 142.666 38.1307C142.666 37.3096 142.874 36.5997 143.292 36.0013C143.723 35.4028 144.315 34.9435 145.066 34.6234C145.832 34.3033 146.723 34.1432 147.739 34.1432C148.476 34.1432 149.172 34.2406 149.826 34.4355C150.494 34.6303 151.072 34.8948 151.559 35.2288L151.434 37.7341H151.225L150.369 36.1683C150.133 35.6812 149.896 35.3402 149.659 35.1453C149.423 34.9365 149.151 34.7904 148.845 34.7069C148.664 34.6512 148.497 34.6164 148.344 34.6025C148.191 34.5747 147.996 34.5608 147.76 34.5608C147.05 34.5608 146.451 34.7695 145.964 35.1871C145.477 35.5907 145.233 36.1405 145.233 36.8364C145.233 37.5462 145.421 38.1168 145.797 38.5483C146.173 38.9658 146.723 39.3416 147.446 39.6756L148.407 40.0932C149.743 40.6777 150.703 41.304 151.288 41.9721C151.872 42.6263 152.165 43.4753 152.165 44.5191C152.165 45.7439 151.698 46.746 150.766 47.5254C149.847 48.2909 148.539 48.6736 146.841 48.6736ZM157.209 48.3605L153.994 39.5295C153.841 39.0841 153.535 38.771 153.075 38.59L152.72 38.4648V38.256H157.835V38.4648L157.522 38.5483C156.979 38.7153 156.798 39.0493 156.979 39.5504L158.921 45.4586L160.654 40.8656L160.257 39.6756C160.16 39.3694 160.055 39.1398 159.944 38.9867C159.846 38.8197 159.714 38.7014 159.547 38.6318L159.192 38.4648V38.256H163.514V38.4648L163.221 38.59C163.013 38.6735 162.887 38.7849 162.846 38.9241C162.804 39.0632 162.832 39.272 162.929 39.5504L164.85 45.3542L166.833 39.5921C167.028 39.0632 166.924 38.7292 166.52 38.59L166.061 38.4648V38.256H168.566V38.4648L168.065 38.6109C167.828 38.6805 167.654 38.7918 167.543 38.9449C167.446 39.0841 167.355 39.279 167.272 39.5295L164.265 48.3605H163.201L160.883 41.5337L158.42 48.3605H157.209ZM174.068 37.9428C174.973 37.9428 175.745 38.1307 176.385 38.5065C177.026 38.8684 177.513 39.3694 177.847 40.0097C178.195 40.636 178.369 41.3528 178.369 42.16C178.369 42.3131 178.362 42.4732 178.348 42.6402C178.334 42.7933 178.306 42.9325 178.264 43.0577H172.043C172.057 44.5609 172.321 45.6465 172.836 46.3145C173.365 46.9687 174.145 47.2958 175.175 47.2958C175.871 47.2958 176.434 47.1844 176.866 46.9617C177.297 46.739 177.701 46.412 178.077 45.9805L178.285 46.1684C177.854 46.9339 177.276 47.5324 176.553 47.9638C175.843 48.3953 174.987 48.611 173.985 48.611C172.996 48.611 172.12 48.4022 171.354 47.9847C170.589 47.5532 169.99 46.9408 169.559 46.1475C169.127 45.3542 168.912 44.4078 168.912 43.3082C168.912 42.167 169.162 41.1997 169.663 40.4063C170.164 39.5991 170.804 38.9867 171.584 38.5691C172.377 38.1516 173.205 37.9428 174.068 37.9428ZM174.006 38.3604C173.602 38.3604 173.254 38.4856 172.962 38.7362C172.683 38.9728 172.461 39.4042 172.294 40.0305C172.14 40.6429 172.057 41.5128 172.043 42.6402H175.613C175.752 41.1231 175.697 40.0305 175.446 39.3625C175.195 38.6944 174.715 38.3604 174.006 38.3604ZM184.789 37.9428C185.693 37.9428 186.466 38.1307 187.106 38.5065C187.746 38.8684 188.233 39.3694 188.567 40.0097C188.915 40.636 189.089 41.3528 189.089 42.16C189.089 42.3131 189.082 42.4732 189.068 42.6402C189.054 42.7933 189.027 42.9325 188.985 43.0577H182.763C182.777 44.5609 183.042 45.6465 183.557 46.3145C184.086 46.9687 184.865 47.2958 185.895 47.2958C186.591 47.2958 187.155 47.1844 187.586 46.9617C188.018 46.739 188.421 46.412 188.797 45.9805L189.006 46.1684C188.574 46.9339 187.997 47.5324 187.273 47.9638C186.563 48.3953 185.707 48.611 184.705 48.611C183.717 48.611 182.84 48.4022 182.075 47.9847C181.309 47.5532 180.711 46.9408 180.279 46.1475C179.848 45.3542 179.632 44.4078 179.632 43.3082C179.632 42.167 179.882 41.1997 180.383 40.4063C180.885 39.5991 181.525 38.9867 182.304 38.5691C183.098 38.1516 183.926 37.9428 184.789 37.9428ZM184.726 38.3604C184.322 38.3604 183.974 38.4856 183.682 38.7362C183.404 38.9728 183.181 39.4042 183.014 40.0305C182.861 40.6429 182.777 41.5128 182.763 42.6402H186.333C186.473 41.1231 186.417 40.0305 186.166 39.3625C185.916 38.6944 185.436 38.3604 184.726 38.3604ZM194.235 48.611C193.345 48.611 192.649 48.3883 192.148 47.9429C191.661 47.4976 191.417 46.7877 191.417 45.8135V38.6735H189.977V38.4648L190.478 38.3813C190.909 38.2838 191.278 38.1446 191.584 37.9637C191.904 37.7828 192.217 37.5392 192.524 37.233L194.235 35.3332H194.444L194.382 38.256H196.72V38.6735H194.361V46.1893C194.361 46.6764 194.465 47.0452 194.674 47.2958C194.897 47.5463 195.175 47.6715 195.509 47.6715C195.801 47.6715 196.059 47.602 196.281 47.4628C196.504 47.3097 196.727 47.1079 196.949 46.8573L197.158 47.0661C196.88 47.5393 196.497 47.9151 196.01 48.1935C195.523 48.4718 194.931 48.611 194.235 48.611ZM201.686 48.611C201.004 48.611 200.391 48.5275 199.848 48.3605C199.306 48.2074 198.804 48.0125 198.345 47.7759L198.366 45.2916H198.575L199.285 46.5442C199.591 47.1009 199.925 47.5184 200.287 47.7968C200.663 48.0612 201.136 48.1935 201.706 48.1935C202.374 48.1935 202.91 48.0473 203.314 47.755C203.731 47.4489 203.94 47.0452 203.94 46.5442C203.94 46.0849 203.794 45.7091 203.502 45.4168C203.21 45.1245 202.667 44.8601 201.873 44.6235L200.997 44.3521C200.148 44.1016 199.48 43.7119 198.992 43.183C198.505 42.6541 198.262 42.0069 198.262 41.2414C198.262 40.3228 198.624 39.5434 199.347 38.9032C200.071 38.263 201.108 37.9428 202.458 37.9428C203.001 37.9428 203.509 38.0055 203.982 38.1307C204.469 38.2421 204.935 38.4161 205.381 38.6527L205.255 40.9074H205.047L204.316 39.613C204.052 39.1537 203.787 38.8336 203.523 38.6527C203.272 38.4578 202.889 38.3604 202.374 38.3604C201.901 38.3604 201.456 38.4926 201.038 38.757C200.621 39.0215 200.412 39.3973 200.412 39.8844C200.412 40.3576 200.586 40.7334 200.934 41.0118C201.296 41.2901 201.825 41.5476 202.521 41.7842L203.46 42.0556C204.462 42.3618 205.179 42.7863 205.61 43.3291C206.042 43.858 206.258 44.4982 206.258 45.2498C206.258 46.2658 205.854 47.08 205.047 47.6924C204.253 48.3048 203.133 48.611 201.686 48.611Z" fill="white"/>
<path d="M115.51 67.6709C115.183 67.6709 114.868 67.63 114.563 67.5484C114.259 67.4742 113.98 67.3554 113.728 67.1921C113.476 67.0214 113.275 66.8098 113.127 66.5574C112.978 66.2976 112.9 65.9859 112.893 65.6221H113.405C113.405 65.6444 113.413 65.7112 113.427 65.8226C113.442 65.9339 113.479 66.0675 113.539 66.2234C113.606 66.3793 113.713 66.5314 113.862 66.6799C114.018 66.8284 114.229 66.9546 114.496 67.0585C114.771 67.155 115.12 67.2032 115.543 67.2032C115.929 67.2032 116.237 67.1587 116.467 67.0696C116.705 66.9731 116.883 66.8581 117.002 66.7244C117.12 66.5834 117.198 66.4498 117.235 66.3236C117.28 66.1974 117.302 66.1009 117.302 66.0341C117.31 65.752 117.239 65.5256 117.091 65.3549C116.942 65.1768 116.742 65.0357 116.489 64.9318C116.237 64.8205 115.962 64.7277 115.665 64.6534C115.369 64.5792 115.068 64.5013 114.764 64.4196C114.467 64.3305 114.192 64.2229 113.94 64.0967C113.687 63.9631 113.487 63.7887 113.338 63.5734C113.197 63.3507 113.134 63.0649 113.149 62.7161C113.164 62.3894 113.275 62.1111 113.483 61.881C113.698 61.6434 113.98 61.4616 114.329 61.3354C114.686 61.2092 115.075 61.1461 115.498 61.1461C115.922 61.1461 116.304 61.224 116.645 61.3799C116.994 61.5284 117.269 61.7511 117.469 62.048C117.677 62.3375 117.774 62.7049 117.759 63.1503H117.258C117.273 62.8385 117.217 62.5824 117.091 62.382C116.964 62.1816 116.805 62.0257 116.612 61.9144C116.419 61.803 116.218 61.7288 116.011 61.6917C115.803 61.6471 115.617 61.6249 115.454 61.6249C114.942 61.6249 114.519 61.7325 114.185 61.9478C113.858 62.1556 113.687 62.4228 113.672 62.7495C113.665 63.0315 113.736 63.2579 113.884 63.4287C114.032 63.5994 114.233 63.7367 114.485 63.8406C114.738 63.9371 115.012 64.0225 115.309 64.0967C115.614 64.171 115.914 64.2489 116.211 64.3305C116.508 64.4122 116.779 64.5198 117.024 64.6534C117.276 64.7871 117.473 64.9689 117.614 65.199C117.762 65.4217 117.833 65.7112 117.826 66.0675C117.811 66.409 117.699 66.6985 117.492 66.936C117.284 67.1735 117.009 67.3554 116.668 67.4816C116.326 67.6078 115.94 67.6709 115.51 67.6709ZM118.737 67.5261V63.0055H119.249V67.5261H118.737ZM119.004 62.2818C118.856 62.2818 118.752 62.2447 118.693 62.1705C118.641 62.0888 118.615 61.996 118.615 61.8921C118.615 61.7882 118.641 61.6991 118.693 61.6249C118.752 61.5506 118.856 61.5135 119.004 61.5135C119.16 61.5135 119.26 61.5506 119.305 61.6249C119.357 61.6991 119.383 61.7882 119.383 61.8921C119.383 61.996 119.357 62.0888 119.305 62.1705C119.26 62.2447 119.16 62.2818 119.004 62.2818ZM120.201 67.5261V63.0055H120.624L120.713 64.2081H120.735C120.75 64.1561 120.787 64.067 120.846 63.9408C120.906 63.8146 120.999 63.681 121.125 63.54C121.251 63.3915 121.418 63.2654 121.626 63.1614C121.834 63.0575 122.093 63.0055 122.405 63.0055C122.717 63.0055 122.973 63.0501 123.174 63.1392C123.381 63.2282 123.548 63.3507 123.675 63.5066C123.808 63.6551 123.908 63.8295 123.975 64.0299C124.042 64.2229 124.087 64.427 124.109 64.6423C124.131 64.8576 124.142 65.0728 124.142 65.2881V67.5261H123.641V65.2881C123.641 64.917 123.6 64.5978 123.519 64.3305C123.437 64.0559 123.3 63.8443 123.107 63.6959C122.914 63.5474 122.646 63.4732 122.305 63.4732C121.941 63.4732 121.641 63.5623 121.403 63.7404C121.173 63.9186 120.999 64.1524 120.88 64.4419C120.768 64.7314 120.713 65.0469 120.713 65.3883V67.5261H120.201ZM126.978 67.6375C126.555 67.6375 126.18 67.5484 125.853 67.3702C125.534 67.1921 125.282 66.9323 125.096 66.5908C124.911 66.2494 124.818 65.8448 124.818 65.3772C124.833 64.9021 124.929 64.4864 125.107 64.1301C125.293 63.7738 125.549 63.4992 125.876 63.3062C126.202 63.1058 126.581 63.0055 127.011 63.0055C127.382 63.0055 127.709 63.0761 127.991 63.2171C128.273 63.3507 128.503 63.5363 128.681 63.7738C128.867 64.0114 128.986 64.2823 129.038 64.5866H128.559C128.485 64.2378 128.31 63.9668 128.036 63.7738C127.761 63.5734 127.423 63.4732 127.022 63.4732C126.681 63.4732 126.384 63.5548 126.132 63.7182C125.879 63.874 125.683 64.093 125.541 64.3751C125.4 64.6572 125.326 64.9838 125.319 65.3549C125.319 65.9042 125.467 66.3459 125.764 66.6799C126.069 67.0065 126.477 67.1698 126.989 67.1698C127.39 67.1698 127.731 67.0696 128.013 66.8692C128.303 66.6688 128.485 66.3941 128.559 66.0452H129.038C128.986 66.3496 128.863 66.6205 128.67 66.8581C128.485 67.0956 128.247 67.2849 127.958 67.4259C127.676 67.5669 127.349 67.6375 126.978 67.6375ZM131.838 67.6375C131.355 67.6375 130.954 67.5224 130.635 67.2923C130.323 67.0622 130.089 66.769 129.934 66.4127C129.778 66.049 129.703 65.6741 129.711 65.2881C129.711 64.8873 129.793 64.5124 129.956 64.1635C130.119 63.8146 130.357 63.5363 130.668 63.3284C130.988 63.1132 131.374 63.0055 131.826 63.0055C132.205 63.0055 132.539 63.0909 132.829 63.2616C133.125 63.4249 133.363 63.6588 133.541 63.9631C133.719 64.26 133.819 64.6163 133.842 65.032C133.849 65.0691 133.853 65.1137 133.853 65.1656C133.853 65.2176 133.853 65.2658 133.853 65.3104H130.201C130.201 65.8819 130.342 66.3385 130.624 66.6799C130.913 67.0214 131.318 67.1921 131.838 67.1921C132.216 67.1921 132.543 67.0919 132.817 66.8915C133.099 66.691 133.274 66.4201 133.341 66.0786H133.842C133.79 66.383 133.671 66.6539 133.485 66.8915C133.3 67.1216 133.066 67.3034 132.784 67.437C132.502 67.5707 132.186 67.6375 131.838 67.6375ZM130.234 64.9763H133.33C133.322 64.8353 133.289 64.6794 133.229 64.5087C133.177 64.3305 133.092 64.1598 132.973 63.9965C132.854 63.8332 132.699 63.6996 132.506 63.5957C132.32 63.4918 132.094 63.4398 131.826 63.4398C131.581 63.4398 131.366 63.4843 131.181 63.5734C130.995 63.6551 130.835 63.7664 130.702 63.9074C130.576 64.0485 130.472 64.2118 130.39 64.3974C130.316 64.5755 130.264 64.7685 130.234 64.9763ZM137.323 67.5261V67.103C137.33 67.0956 137.405 67.0436 137.546 66.9471C137.687 66.8432 137.872 66.7059 138.102 66.5352C138.34 66.357 138.592 66.1566 138.859 65.9339C139.134 65.7038 139.405 65.4625 139.672 65.2102C139.947 64.9578 140.192 64.7054 140.407 64.453C140.622 64.2006 140.789 63.9594 140.908 63.7293C141.094 63.3433 141.149 62.9944 141.075 62.6826C141.001 62.3709 140.827 62.1222 140.552 61.9366C140.285 61.7511 139.94 61.6583 139.516 61.6583C139.064 61.6657 138.692 61.803 138.403 62.0703C138.113 62.3301 137.969 62.7123 137.969 63.2171L137.501 63.1837C137.501 62.7754 137.586 62.4266 137.757 62.1371C137.935 61.8476 138.18 61.6249 138.492 61.469C138.804 61.3131 139.164 61.2352 139.572 61.2352C139.973 61.2352 140.322 61.3057 140.619 61.4467C140.923 61.5878 141.157 61.7808 141.32 62.0257C141.491 62.2707 141.584 62.549 141.599 62.8608C141.613 63.1726 141.535 63.5029 141.365 63.8518C141.239 64.0967 141.046 64.3639 140.786 64.6534C140.526 64.9355 140.24 65.2139 139.928 65.4885C139.617 65.7632 139.312 66.0156 139.015 66.2457C138.726 66.4758 138.477 66.6651 138.269 66.8135C138.062 66.962 137.935 67.0473 137.891 67.0696H141.732V67.5261H137.323ZM144.913 67.682C144.059 67.682 143.432 67.3888 143.031 66.8024C142.63 66.2085 142.43 65.4106 142.43 64.4085C142.43 63.7478 142.515 63.1763 142.686 62.6938C142.857 62.2039 143.124 61.8253 143.488 61.5581C143.859 61.2834 144.334 61.1461 144.913 61.1461C145.484 61.1461 145.952 61.2797 146.316 61.5469C146.687 61.8142 146.958 62.1927 147.129 62.6826C147.307 63.1726 147.396 63.7478 147.396 64.4085C147.396 65.0543 147.307 65.6258 147.129 66.1232C146.958 66.6131 146.687 66.9954 146.316 67.27C145.952 67.5447 145.484 67.682 144.913 67.682ZM144.913 67.2478C145.603 67.2478 146.108 66.9954 146.427 66.4906C146.746 65.9784 146.906 65.2844 146.906 64.4085C146.906 63.8295 146.835 63.3284 146.694 62.9053C146.561 62.4822 146.345 62.1556 146.049 61.9255C145.759 61.6954 145.381 61.5803 144.913 61.5803C144.23 61.5803 143.725 61.8253 143.399 62.3152C143.079 62.8051 142.92 63.5029 142.92 64.4085C142.92 64.9875 142.987 65.4885 143.12 65.9116C143.261 66.3347 143.477 66.6651 143.766 66.9026C144.056 67.1327 144.438 67.2478 144.913 67.2478ZM150.371 67.682C149.517 67.682 148.89 67.3888 148.489 66.8024C148.088 66.2085 147.888 65.4106 147.888 64.4085C147.888 63.7478 147.973 63.1763 148.144 62.6938C148.314 62.2039 148.582 61.8253 148.945 61.5581C149.317 61.2834 149.792 61.1461 150.371 61.1461C150.942 61.1461 151.41 61.2797 151.774 61.5469C152.145 61.8142 152.416 62.1927 152.586 62.6826C152.765 63.1726 152.854 63.7478 152.854 64.4085C152.854 65.0543 152.765 65.6258 152.586 66.1232C152.416 66.6131 152.145 66.9954 151.774 67.27C151.41 67.5447 150.942 67.682 150.371 67.682ZM150.371 67.2478C151.061 67.2478 151.566 66.9954 151.885 66.4906C152.204 65.9784 152.364 65.2844 152.364 64.4085C152.364 63.8295 152.293 63.3284 152.152 62.9053C152.019 62.4822 151.803 62.1556 151.506 61.9255C151.217 61.6954 150.838 61.5803 150.371 61.5803C149.688 61.5803 149.183 61.8253 148.856 62.3152C148.537 62.8051 148.378 63.5029 148.378 64.4085C148.378 64.9875 148.444 65.4885 148.578 65.9116C148.719 66.3347 148.934 66.6651 149.224 66.9026C149.513 67.1327 149.896 67.2478 150.371 67.2478ZM155.828 67.682C154.975 67.682 154.348 67.3888 153.947 66.8024C153.546 66.2085 153.345 65.4106 153.345 64.4085C153.345 63.7478 153.431 63.1763 153.601 62.6938C153.772 62.2039 154.039 61.8253 154.403 61.5581C154.774 61.2834 155.249 61.1461 155.828 61.1461C156.4 61.1461 156.868 61.2797 157.231 61.5469C157.602 61.8142 157.873 62.1927 158.044 62.6826C158.222 63.1726 158.311 63.7478 158.311 64.4085C158.311 65.0543 158.222 65.6258 158.044 66.1232C157.873 66.6131 157.602 66.9954 157.231 67.27C156.868 67.5447 156.4 67.682 155.828 67.682ZM155.828 67.2478C156.519 67.2478 157.023 66.9954 157.343 66.4906C157.662 65.9784 157.821 65.2844 157.821 64.4085C157.821 63.8295 157.751 63.3284 157.61 62.9053C157.476 62.4822 157.261 62.1556 156.964 61.9255C156.675 61.6954 156.296 61.5803 155.828 61.5803C155.145 61.5803 154.641 61.8253 154.314 62.3152C153.995 62.8051 153.835 63.5029 153.835 64.4085C153.835 64.9875 153.902 65.4885 154.036 65.9116C154.177 66.3347 154.392 66.6651 154.682 66.9026C154.971 67.1327 155.353 67.2478 155.828 67.2478Z" fill="white"/>
<line x1="164.254" y1="64.6421" x2="205.869" y2="64.6421" stroke="url(#paint0_linear_537_2135)" stroke-width="0.13918" stroke-linecap="round"/>
<line x1="65.2963" y1="64.6421" x2="106.911" y2="64.6421" stroke="url(#paint1_linear_537_2135)" stroke-width="0.13918" stroke-linecap="round"/>
<defs>
<linearGradient id="paint0_linear_537_2135" x1="164.184" y1="65.2117" x2="205.938" y2="65.2117" gradientUnits="userSpaceOnUse">
<stop stop-color="white"/>
<stop offset="1" stop-color="white" stop-opacity="0.1"/>
</linearGradient>
<linearGradient id="paint1_linear_537_2135" x1="65.2267" y1="65.2117" x2="106.981" y2="65.2117" gradientUnits="userSpaceOnUse">
<stop stop-color="#979387" stop-opacity="0.1"/>
<stop offset="1" stop-color="white"/>
</linearGradient>
</defs>
</svg>
