<svg width="45" height="67" viewBox="0 0 45 67" fill="none" xmlns="http://www.w3.org/2000/svg">
<path fill-rule="evenodd" clip-rule="evenodd" d="M1.84886 44.8572C2.48611 44.8436 3.12263 44.9094 3.06061 44.6827C2.9885 44.419 2.47151 42.5284 3.90772 41.3716C5.45677 40.1239 6.65801 41.0455 6.59361 40.5406C6.58031 40.4363 6.48827 39.7147 6.62721 39.2257C6.9758 37.9992 7.74438 37.6016 7.9136 37.4452C8.09903 37.2739 8.00637 34.0575 8.18087 32.8771C8.60717 29.9935 8.26039 28.9062 10.5035 27.4564C12.6922 26.0419 17.0303 25.1407 17.4071 24.6655C18.1573 23.7194 17.2785 23.1714 15.9697 21.2326C15.0609 19.8864 15.2396 19.2245 14.7394 18.8329C12.4431 17.0353 12.2631 14.8794 13.2363 14.2513C14.1761 13.6448 14.9384 14.2191 14.7185 13.5888C14.6043 13.2614 14.3997 11.7637 14.9118 10.5247C15.2337 9.7459 14.511 9.94255 13.8458 8.65133C11.9376 4.94732 17.4991 -0.992725 23.7724 0.141644C27.7907 0.868264 32.9025 5.67885 29.496 9.71437C29.1008 10.1824 29.4948 10.2958 29.5831 11.392C29.7383 13.3194 29.1148 13.9221 29.5892 13.897C30.9821 13.8233 31.6599 14.7216 31.4954 15.6135C31.021 18.1876 29.194 18.6358 28.9976 19.3241C28.1925 22.1447 25.8886 23.0556 26.4945 24.4302C26.9382 25.4369 31.8303 25.8223 34.4811 28.1633C35.7271 29.2637 35.8738 31.8353 36.1331 37.1919C36.1661 37.8722 36.7003 37.4781 37.4165 37.7503C39.5738 38.5702 39.6874 40.2973 39.7505 40.7111C39.8026 41.0531 40.3034 41.0079 40.3274 41.0117C40.8935 41.1006 42.0692 41.8834 42.4076 42.5832C42.8884 43.5775 42.9457 43.5861 42.8383 44.6807C42.8148 44.9206 43.4408 44.9193 43.8303 45.161C45.4208 46.1482 44.2116 47.4883 44.0783 47.636C41.2112 50.8136 39.1804 53.76 33.2854 54.7065C32.5723 54.821 31.5521 57.2527 28.9736 57.3816C27.6597 57.4473 17.3866 57.4026 16.3791 57.3982C12.6467 57.3819 12.4173 54.9055 11.4475 54.7173C5.85066 53.631 4.55133 52.0012 1.8368 49.0042C0.414316 47.4336 -0.591814 46.6551 0.39449 45.5118C0.78165 45.063 1.72359 44.8813 1.84886 44.8572Z" fill="#C8773A"/>
<path fill-rule="evenodd" clip-rule="evenodd" d="M31.877 54.1761C30.313 54.2602 13.5414 54.2899 12.42 54.1481C4.99019 53.2079 3.56936 49.5254 1.73295 47.8658C1.25406 47.433 2.10339 47.8489 17.5241 48.3635C23.8645 48.5751 36.3987 48.2718 40.8616 47.773C41.0087 47.7565 41.0074 47.7805 42.708 47.6507C42.7767 47.6455 43.3384 47.4837 42.9196 47.8761C40.8352 49.8292 39.5514 53.3391 31.877 54.1761L31.877 54.1761Z" fill="#FCF5E2"/>
<path fill-rule="evenodd" clip-rule="evenodd" d="M16.4666 14.8249C17.3133 14.546 18.0209 14.2088 18.1522 14.1463C22.1516 12.2404 22.3824 10.9389 22.8689 11.3387C25.5185 13.516 27.817 14.4806 28.3421 14.7627C28.5945 14.8984 29.0546 17.4519 28.1312 19.6842C27.2574 21.7964 24.2024 24.9733 23.777 25.3941C23.6203 25.5491 23.1798 25.9848 21.0455 25.7558C21.0114 25.7521 20.7066 26.1328 18.272 23.1564C15.4084 19.6554 15.7462 18.9133 15.6647 18.7045C15.1609 17.4141 15.4935 15.4433 15.5037 15.3553C15.5236 15.1848 15.5208 15.1171 16.4667 14.8249L16.4666 14.8249Z" fill="#FCF5E2"/>
<path fill-rule="evenodd" clip-rule="evenodd" d="M4.31442 47.1357C3.7411 47.0925 1.55719 46.9702 1.14621 46.9341C0.494268 46.8768 0.393582 45.7432 1.93477 45.5458C2.05766 45.5301 40.4222 45.5135 42.4454 45.5501C42.5865 45.5527 43.9402 45.5772 43.9686 46.4387C43.9865 46.9817 43.0168 46.9211 42.9708 46.9256C26.1987 48.5518 4.97687 47.1602 4.31442 47.1357Z" fill="#FCF5E2"/>
<path fill-rule="evenodd" clip-rule="evenodd" d="M27.0359 34.2986C26.4347 34.4438 26.4281 34.4182 25.877 34.7039C25.4212 34.9402 25.2066 33.055 22.5432 32.791C20.4037 32.5789 19.1949 34.4575 19.0209 34.728C18.8491 34.9949 18.5332 34.5274 17.3489 34.5826C17.2035 34.5894 16.8773 34.7437 16.9441 34.2932C17.0721 33.4304 17.6092 30.2329 17.6684 29.88C17.7518 29.3838 17.6521 29.237 17.8686 29.283C18.0904 29.3301 18.8425 31.804 23.692 30.7904C25.7069 30.3692 26.2057 28.4627 26.285 29.0674C26.3163 29.3056 27.0543 32.817 27.1228 33.1427C27.3244 34.1019 27.4209 34.1325 27.2784 34.2538C27.2634 34.2666 27.2605 34.2571 27.0359 34.2985V34.2986Z" fill="#FCF5E2"/>
<path fill-rule="evenodd" clip-rule="evenodd" d="M31.5262 54.8985C31.8283 54.9164 31.8901 54.8647 31.8857 54.9831C31.8841 55.0282 31.8605 55.0125 31.4962 55.3913C30.0353 56.9104 29.7842 56.7234 23.0718 56.7234C14.8909 56.7233 14.661 56.8907 13.3419 55.5509C13.1733 55.3797 12.542 54.8551 12.943 54.8779C14.3441 54.9578 30.5408 54.9163 31.5262 54.8985Z" fill="#FCF5E1"/>
<path fill-rule="evenodd" clip-rule="evenodd" d="M23.3372 30.1557C22.9383 30.2451 21.0104 30.4892 20.1827 30.1934C18.6525 29.6464 17.8654 28.3211 18.005 27.691C18.2271 26.6886 18.4214 24.6165 18.5786 24.6221C18.7939 24.6297 19.7843 26.3795 20.9585 26.4451C23.736 26.6 23.846 26.4286 25.1711 24.9391C25.4977 24.572 25.5076 25.3593 25.5684 25.6509C25.9281 27.3776 26.1442 27.4303 25.6765 28.3695C24.9682 29.792 23.5669 30.1044 23.3371 30.1557H23.3372Z" fill="#FCF5E2"/>
<path fill-rule="evenodd" clip-rule="evenodd" d="M14.0564 28.4727C14.1913 27.1897 14.165 27.1915 14.27 26.7155C14.3283 26.4515 15.4771 26.2417 17.2754 25.5201C17.7048 25.3478 17.6722 25.5375 17.6668 25.5686C17.1015 28.8545 16.369 33.6357 16.3155 33.9398C16.2081 34.5509 16.3974 34.6866 15.861 35.0089C15.0903 35.4721 14.7806 36.0682 14.7534 36.1006C14.6428 36.2319 13.7438 35.8044 13.7337 35.6086C13.7301 35.539 14.011 29.1532 14.0564 28.4728L14.0564 28.4727Z" fill="#FCF5E2"/>
<path fill-rule="evenodd" clip-rule="evenodd" d="M30.1018 29.7085C30.1527 30.9226 30.4166 33.06 29.7661 34.9047C29.6119 35.342 29.5134 34.7407 28.2684 34.372C27.9613 34.2811 28.0751 34.1506 27.3928 30.9399C27.3135 30.5669 26.4709 26.6015 26.4112 26.2753C26.2829 25.5743 26.1452 25.2952 26.4197 25.3871C26.6543 25.4656 26.6357 25.5143 29.3263 26.4429C29.729 26.5819 29.8228 26.5551 29.8688 26.9765C29.9823 28.0156 30.0294 28.0056 30.1018 29.7085Z" fill="#FCF5E2"/>
<path fill-rule="evenodd" clip-rule="evenodd" d="M20.3417 61.5367C21.2869 61.6107 21.6439 61.9406 21.5644 61.6749C21.4678 61.3518 21.1988 61.0732 21.4086 59.8271C21.4359 59.6646 22.0753 57.8862 22.5918 58.5385C24.1109 60.4573 22.8127 61.9056 23.1635 61.8107C23.2994 61.774 24.0699 61.3194 25.2666 61.6973C25.7537 61.8511 26.7685 62.4099 26.4762 62.7024C25.1455 64.034 23.5865 63.4787 23.3449 63.3927C22.6685 63.1518 24.1092 64.5625 22.6775 66.4829C22.3446 66.9295 22.1751 66.7816 21.8755 66.3175C20.626 64.382 21.9617 63.1884 21.4009 63.3596C20.8707 63.5213 20.4586 63.7567 19.2988 63.3942C19.0119 63.3045 17.9738 62.741 18.1515 62.4745C18.6954 61.6589 20.1517 61.5509 20.3417 61.5368V61.5367Z" fill="#C8773A"/>
<path fill-rule="evenodd" clip-rule="evenodd" d="M23.0713 41.7609C20.455 41.9313 20.544 43.5281 20.2447 42.9229C19.5427 41.5035 18.826 41.7675 18.7265 40.3667C18.497 37.1334 23.205 36.2233 24.1119 39.4868C24.3741 40.4302 23.8895 41.7917 23.5122 41.7862C23.4769 41.7857 23.4796 41.7844 23.0713 41.7609Z" fill="#FCF5E1"/>
<path fill-rule="evenodd" clip-rule="evenodd" d="M35.2796 34.1139C35.4115 36.0312 35.4609 37.6032 35.4518 37.6209C35.1839 38.1456 34.9846 37.1595 34.2437 36.5031C33.0288 35.4266 32.3125 36.016 32.3978 35.2553C32.4215 35.0442 32.5848 33.5891 32.7083 32.6186C32.9153 30.9927 33.0211 30.3834 32.6873 27.948C32.6252 27.4954 34.2942 28.7988 34.4772 29.2012C35.0182 30.3911 35.1816 33.1324 35.2796 34.1139Z" fill="#FCF5E2"/>
<path fill-rule="evenodd" clip-rule="evenodd" d="M20.2525 7.0739C21.2604 6.84438 21.2516 6.83537 22.2776 6.77802C22.9619 6.73976 22.6352 7.09373 22.558 7.26C20.7603 11.1289 16.1699 12.0997 15.4932 12.2428C14.6722 12.4164 16.007 8.29767 20.2525 7.0739Z" fill="#FCF5E2"/>
<path fill-rule="evenodd" clip-rule="evenodd" d="M25.4414 36.489C25.3797 36.9461 25.1716 36.7654 24.7599 36.9691C24.2739 37.2098 24.2752 37.1968 23.8389 37.5073C23.6658 37.6304 22.7048 36.6722 21.3971 36.7153C20.1067 36.7579 19.3911 37.5612 19.3101 37.271C18.5505 34.55 22.2524 31.9932 24.628 34.4879C25.3449 35.2407 25.4281 36.3167 25.4414 36.489Z" fill="#FCF5E1"/>
<path fill-rule="evenodd" clip-rule="evenodd" d="M24.6586 37.8207C24.7634 37.7976 25.4102 37.3647 26.0649 37.4058C29.1318 37.5986 28.9836 41.2211 28.353 41.3213C25.9397 41.7047 25.9899 43.2024 25.6325 42.9063C25.0744 42.444 25.0951 42.4221 24.4714 42.0474C24.2788 41.9316 25.3773 40.5 24.5897 38.7685C24.3546 38.2517 24.0624 38.0475 24.6586 37.8207Z" fill="#FCF5E1"/>
<path fill-rule="evenodd" clip-rule="evenodd" d="M8.87923 32.8771C9.30252 29.4148 9.20184 29.1616 11.0802 27.9109C11.2276 27.8127 11.2932 27.8604 11.2747 28.0352C10.9935 30.6883 11.1298 30.6995 11.0138 31.3824C10.5125 34.3341 10.8272 36.1794 10.7184 36.2937C10.0392 37.007 10.0334 37.0071 9.9495 37.0075C8.79785 37.0137 8.78051 37.093 8.71627 37.0181C8.6424 36.9321 8.74955 34.3031 8.87923 32.8771Z" fill="#FCF5E2"/>
<path fill-rule="evenodd" clip-rule="evenodd" d="M14.97 44.8479C14.6707 44.8402 14.6061 44.8035 14.6494 44.507C14.7704 43.6783 14.2514 43.2462 15.4297 42.2357C16.9945 40.8939 20.0219 41.8987 19.858 44.588C19.8379 44.9187 19.6641 44.848 17.1716 44.8479C17.1011 44.8479 16.3889 44.8479 16.291 44.8533C15.6301 44.8895 15.6387 44.8485 14.97 44.8479Z" fill="#FCF5E2"/>
<path fill-rule="evenodd" clip-rule="evenodd" d="M24.4816 7.07306C24.9673 7.24228 25.0269 7.20014 25.0413 7.3353C25.0623 7.53154 23.3293 9.87239 21.2778 11.4387C20.9104 11.7192 18.812 13.3214 16.1965 14.1915C15.8132 14.319 15.7272 14.3306 15.5741 13.9514C15.3084 13.2934 15.0603 12.9948 15.761 12.8823C17.0934 12.6683 20.5218 11.5609 22.5067 8.72254C23.3377 7.53428 23.3397 6.80776 23.6909 6.88557C24.0941 6.97486 24.0849 6.98366 24.4816 7.07306Z" fill="#FCF5E2"/>
<path fill-rule="evenodd" clip-rule="evenodd" d="M11.4659 33.4082C11.5968 32.1876 11.5803 32.1869 11.5991 32.0819C11.9095 30.3467 11.7893 28.5735 12.0587 27.5054C12.118 27.2704 13.5599 26.7242 13.5309 26.9814C13.2578 29.3979 13.3286 29.3962 13.2212 31.8224C13.0616 35.4297 13.1621 35.5997 12.8576 35.6219C12.233 35.6673 12.2424 35.6921 11.6275 35.8134C11.4383 35.8507 11.3152 35.7405 11.4659 33.4082Z" fill="#FCF5E1"/>
<path fill-rule="evenodd" clip-rule="evenodd" d="M34.2556 41.9622C35.4527 42.0358 35.4956 42.0212 36.4327 42.7712C36.8863 43.1343 37.6707 44.8456 36.9856 44.8479C36.5771 44.8493 32.0359 44.8647 31.8793 44.8458C31.3357 44.78 32.0826 42.1142 34.2556 41.9622Z" fill="#FCF5E1"/>
<path fill-rule="evenodd" clip-rule="evenodd" d="M14.7048 38.2454C14.7901 38.2423 16.8984 37.9167 17.3612 40.1849C17.4751 40.743 17.4691 40.9148 16.9048 40.9481C15.21 41.0481 14.3918 42.3958 14.2655 42.3865C13.9606 42.3643 14.2388 42.0016 13.0254 41.1651C12.6071 40.8767 12.653 38.716 14.7048 38.2454V38.2454Z" fill="#FCF5E1"/>
<path fill-rule="evenodd" clip-rule="evenodd" d="M31.4382 38.9588C32.0678 38.9116 32.7725 38.775 33.8162 39.658C34.3043 40.071 34.8545 41.2601 34.5282 41.2777C33.9754 41.3075 33.9497 41.2043 32.7772 41.7239C31.8131 42.1511 31.7174 43.0005 31.469 42.7113C31.4137 42.6468 31.3695 42.573 31.3131 42.5094C30.2284 41.2852 29.2156 41.5557 29.2947 41.1511C29.6099 39.539 30.68 39.1867 31.4382 38.9588Z" fill="#FCF5E2"/>
<path fill-rule="evenodd" clip-rule="evenodd" d="M38.0238 42.493C37.6712 42.2496 37.6852 42.5218 37.3278 42.7591C37.0532 42.2671 38.6724 41.7067 38.7453 41.6797C39.1901 41.515 40.2874 41.6889 40.4998 41.7915C42.2994 42.6604 42.3712 44.6045 42.0685 44.8129C41.8867 44.9381 38.446 44.855 38.1311 44.8474C37.8598 44.8408 38.024 44.6825 37.9071 44.1454L37.9692 44.011C38.681 43.8011 38.1618 42.7424 37.9019 43.2865C37.8312 43.4347 37.9731 43.8649 37.7616 43.8898C37.7109 43.8957 37.7955 43.8383 37.5877 43.2753C37.4467 42.893 37.7338 43.003 38.0238 42.7223C38.1133 42.6356 38.0542 42.622 38.0239 42.4929L38.0238 42.493Z" fill="#FCF4DF"/>
<path fill-rule="evenodd" clip-rule="evenodd" d="M3.78554 44.3552C3.91521 44.3889 4.34736 44.5012 5.45697 44.4653C7.45986 44.4005 7.64694 43.4077 7.13197 43.5333C6.60799 43.6613 6.69429 44.1624 4.31655 44.0273C3.73641 43.9943 3.7435 44.0099 3.69375 44.0069C3.48835 43.9943 3.55129 43.214 3.7054 42.8325C4.85518 39.9861 9.09148 41.6939 7.90231 44.5805C7.78464 44.8661 7.70187 44.9331 4.05058 44.8449C3.88322 44.8408 3.59674 44.5344 3.78554 44.3552Z" fill="#FCF5E2"/>
<path fill-rule="evenodd" clip-rule="evenodd" d="M26.7704 44.8479C26.2978 44.7764 26.4919 44.565 26.2679 43.9645C25.8601 42.8713 29.0058 40.5958 30.9709 43.2003C31.149 43.4364 31.182 43.4599 31.0256 44.6844C31.0008 44.8787 30.8955 44.8482 26.7703 44.8479H26.7704Z" fill="#FCF5E2"/>
<path fill-rule="evenodd" clip-rule="evenodd" d="M35.8406 38.3376C37.7 37.994 38.9065 39.3862 39.0644 40.7187C39.1042 41.0549 37.796 41.0165 37.005 41.8787C36.5262 42.4007 36.5036 41.7575 35.7601 41.4883C35.1913 41.2823 35.3463 41.1007 35.2655 40.7925C34.957 39.6172 34.3152 39.3427 34.3956 39.1174C34.5738 38.618 35.7124 38.366 35.8407 38.3376L35.8406 38.3376Z" fill="#FCF5E1"/>
<path fill-rule="evenodd" clip-rule="evenodd" d="M32.1687 29.7073C32.1854 30.1385 32.2435 31.6369 31.727 35.0832C31.7201 35.1291 31.6495 35.6 31.5337 35.6295C30.4687 35.901 30.4771 35.9737 30.3934 35.9301C29.8105 35.6262 31.0817 35.1344 30.8668 30.943C30.6694 27.0936 30.4222 26.8047 30.7303 26.903C31.89 27.2731 31.9168 27.4065 31.9382 27.5126C32.0827 28.2312 32.0396 28.2306 32.1686 29.7073H32.1687Z" fill="#FCF5E1"/>
<path fill-rule="evenodd" clip-rule="evenodd" d="M28.4342 12.4645C28.1087 12.2469 26.0798 10.891 24.591 9.43431C24.4755 9.32131 24.5068 9.26354 25.6678 7.72509C25.9027 7.41378 27.2977 8.41035 28.2393 9.47888C28.7378 10.0445 29.0304 11.6571 28.8956 12.54C28.8565 12.7965 28.4559 12.4786 28.4342 12.4645Z" fill="#FCF5E2"/>
<path fill-rule="evenodd" clip-rule="evenodd" d="M22.8955 42.4739C23.2968 42.4789 23.2826 42.5183 23.6878 42.5678C25.321 42.767 26.0129 44.8292 25.6241 44.8455C25.4925 44.851 20.7318 44.8504 20.6955 44.8453C20.3283 44.794 20.5349 42.6985 22.8955 42.4739Z" fill="#FCF5E1"/>
<path fill-rule="evenodd" clip-rule="evenodd" d="M12.4977 43.7124C12.4899 43.7007 12.4718 43.5564 12.2418 43.5687C11.7092 43.5971 11.4141 42.9114 11.1212 43.1346C10.8206 43.3637 10.7876 43.4066 10.4586 43.2163C10.1592 43.0431 10.1508 43.729 8.89061 43.5418C8.58762 43.4968 8.83915 42.4995 9.37111 42.0767C10.715 41.0084 11.5545 41.4175 12.1586 41.5713C14.0497 42.053 14.1883 44.5879 13.8105 44.8214C13.7029 44.8879 13.6978 44.8295 12.2291 44.8772C11.7568 44.8926 12.3937 44.6884 12.6403 44.4615C13.3636 43.796 13.431 43.8723 13.4722 43.7978C13.5024 43.7432 13.4644 43.1704 12.6926 43.819C12.6276 43.7835 12.5627 43.748 12.4976 43.7125L12.4977 43.7124Z" fill="#FBF3DD"/>
<path fill-rule="evenodd" clip-rule="evenodd" d="M18.1188 39.7423C18.0807 39.8631 18.0813 39.8625 18.0776 39.8728C18.067 39.902 18.0557 39.8879 18.0471 39.9116L17.9656 39.9221C17.355 37.1629 15.0608 37.7972 15.058 37.3696C15.0503 36.1969 16.755 34.7032 18.5596 35.47C18.761 35.5556 18.3601 36.4904 18.6555 37.5491C18.7741 37.9744 18.7695 37.9949 18.5306 38.3646C18.1218 38.9971 18.1192 39.6273 18.1188 39.7423L18.1188 39.7423Z" fill="#FCF5E1"/>
<path fill-rule="evenodd" clip-rule="evenodd" d="M30.9069 36.4751C31.4667 36.2802 31.8644 36.1269 32.7718 36.4509C32.7764 36.4525 33.6894 36.6458 34.3037 37.6582C34.6485 38.2264 34.3071 38.2162 33.9955 38.5182C33.672 38.8319 33.6133 38.6537 33.367 38.5322C32.0263 37.871 30.2756 38.3781 29.52 39.2448C29.2969 39.5006 29.213 38.9087 29.2291 38.7779C29.4343 37.1078 30.6515 36.6085 30.9068 36.4751H30.9069Z" fill="#FCF4DF"/>
<path fill-rule="evenodd" clip-rule="evenodd" d="M21.4796 23.1346C21.3124 23.1183 20.5813 23.0469 19.754 21.9379C19.4436 21.5218 19.5509 21.2604 19.1057 21.3132C18.9089 21.3366 18.7177 21.1175 18.9596 20.9407C19.0102 20.9038 19.7446 20.3672 19.7327 20.8145C19.7311 20.8744 19.6238 21.0002 19.7012 21.0981C20.0842 21.5831 24.5904 21.5866 24.4935 20.8997C24.3914 20.1761 25.7186 21.1105 25.1991 21.2895C25.0189 21.3516 24.8713 21.1155 24.6921 21.4484C23.794 23.1178 22.5964 23.1626 22.365 23.1712C22.3159 23.173 22.3195 23.1685 21.7514 23.1349C21.6099 23.1194 21.6169 23.1184 21.4796 23.1346Z" fill="#C8773A"/>
<path fill-rule="evenodd" clip-rule="evenodd" d="M10.4826 38.1602C10.2264 37.9649 10.1891 38.0387 9.94082 38.2371C9.72376 38.4107 9.71362 38.1098 9.62639 38.0349C9.42673 37.8634 9.2501 38.098 9.36301 38.7613C9.39624 38.9565 9.6193 38.9599 9.66791 39.0495C9.86089 39.405 9.20864 39.4905 9.15459 39.4976C8.85425 39.537 8.65365 39.7783 8.71282 39.4818C8.7751 39.1697 9.47855 39.4449 9.26708 39.0377C9.12271 38.7597 9.14993 38.7549 9.14854 38.4384C9.12105 38.4093 9.09356 38.3802 9.06607 38.3512C8.724 38.3778 8.82795 38.8795 8.5717 38.6495C8.28373 38.3909 8.12186 38.6995 8.21374 38.8576C8.42826 39.2267 7.21501 39.0898 7.74588 39.5727C7.71321 39.622 7.6806 39.6712 7.64793 39.7204C7.53089 39.7679 7.50822 39.7385 7.47555 39.8295C7.32476 40.2497 7.9078 39.9946 8.06025 40.2091C8.34693 40.6124 8.60287 39.9661 8.80346 40.2767C9.10412 40.7424 9.32635 40.0643 9.35063 40.0221C9.48683 39.7854 9.55547 39.9417 9.70073 40.1786C10.026 40.709 10.2457 40.2905 10.1455 40.0911C9.79349 39.3911 10.7907 39.99 10.9365 39.6706C11.083 39.3495 10.5907 39.4484 10.593 39.307C10.5967 39.079 10.7699 39.3535 11.4575 39.1686C11.8868 39.0532 11.8953 40.6306 11.5391 40.6575C9.97338 40.7755 9.81156 40.7343 8.59661 41.9113C8.3796 42.1216 6.64657 40.8596 7.42058 39.0527C8.15768 37.332 10.5355 37.4324 11.1953 38.4031C11.1428 38.4432 11.0903 38.4833 11.0379 38.5235C10.929 38.3655 10.932 38.2813 10.6596 38.3657C10.6006 38.2972 10.5416 38.2288 10.4826 38.1603L10.4826 38.1602Z" fill="#FBF3DD"/>
<path fill-rule="evenodd" clip-rule="evenodd" d="M22.3388 4.61029C22.3458 4.31435 22.3844 2.66151 22.4388 0.911192C22.4435 0.761437 22.5166 0.530515 24.3104 0.980349C24.6389 1.06271 24.447 1.36889 23.5102 4.34608C23.034 5.85958 23.1319 6.17933 22.4599 6.07792C22.2506 6.04635 22.3156 5.48076 22.3389 4.61029H22.3388Z" fill="#FCF5E2"/>
<path fill-rule="evenodd" clip-rule="evenodd" d="M17.8665 1.86496C18.0995 1.7372 18.9602 1.19947 19.0935 1.36439C19.1091 1.3837 20.5707 6.06633 20.5783 6.11204C20.6101 6.30336 20.149 6.44944 19.9965 6.27789C19.8955 6.16427 17.4868 2.86515 17.3084 2.61549C17.0516 2.25614 17.299 2.23859 17.8665 1.86496Z" fill="#FCF5E1"/>
<path fill-rule="evenodd" clip-rule="evenodd" d="M27.9986 35.0212C28.1612 35.0678 29.3476 35.408 29.7237 36.2438C29.8533 36.5317 29.2845 36.5757 28.7929 37.7206C28.5682 38.2438 28.3679 37.2627 26.9423 36.8559C26.3871 36.6974 26.1557 36.8805 26.0926 36.3096C25.9976 35.4507 26.0331 35.4251 26.0932 35.3815C26.8211 34.8535 27.845 34.9993 27.9986 35.0212L27.9986 35.0212Z" fill="#FCF4DF"/>
<path fill-rule="evenodd" clip-rule="evenodd" d="M26.2399 1.79701C26.7629 2.1135 27.1483 2.24586 26.8894 2.60769C26.6807 2.89933 24.3524 6.15362 24.23 6.2162C24.0424 6.31217 23.6632 6.22055 23.7142 6.02591C23.7754 5.7923 24.9446 2.0639 25.0525 1.71967C25.2837 0.982696 25.5564 1.44045 26.2399 1.79695V1.79701Z" fill="#FCF5E1"/>
<path fill-rule="evenodd" clip-rule="evenodd" d="M21.3108 0.744656C21.6138 0.74771 21.6267 0.705936 21.7026 0.795541C21.8134 0.926298 21.5846 6.00638 21.5788 6.02211C21.3668 6.59188 20.9904 5.10287 20.844 4.61945C20.5135 3.52737 19.7264 1.21546 19.7864 1.07512C19.8489 0.928938 21.187 0.760237 21.3108 0.744656Z" fill="#FCF5E0"/>
<path fill-rule="evenodd" clip-rule="evenodd" d="M26.5936 13.0661C25.705 12.5454 25.7079 12.5504 24.8559 11.9732C24.5834 11.7886 23.3381 10.8743 23.2711 10.7613C23.2181 10.6719 23.5806 10.2947 23.6143 10.2596C23.9068 9.95525 23.9715 9.81347 24.2814 10.097C28.0137 13.5124 29.0585 13.105 28.5765 13.9114C28.4353 14.1477 27.4864 13.5724 26.5935 13.066L26.5936 13.0661Z" fill="#FCF5E3"/>
<path fill-rule="evenodd" clip-rule="evenodd" d="M16.0288 7.06832C14.4809 6.59602 14.4787 6.61315 14.3454 6.56853C14.2557 6.53845 14.0306 6.46303 14.5198 5.39911C14.6583 5.0981 14.8285 4.617 15.1214 4.82334C18.2221 7.0078 18.356 7.06723 18.2275 7.16424C17.5318 7.68923 17.4428 7.44832 16.0288 7.06832Z" fill="#FCF5E2"/>
<path fill-rule="evenodd" clip-rule="evenodd" d="M13.2863 36.3439C13.3447 36.5849 13.2386 36.9626 13.5457 36.813C13.6173 36.7781 13.6404 36.6058 13.7377 36.5048C13.7912 36.5304 14.3858 36.8148 14.3114 36.9746C14.2711 37.0612 14.2077 37.0101 14.1848 37.1075C14.1462 37.2708 14.5144 37.5373 14.1928 37.6646C13.9139 37.7752 13.9157 37.7663 13.6562 37.9222C13.6166 37.8565 13.5771 37.7907 13.5375 37.7251C13.4354 37.522 13.4027 37.4272 13.2293 37.5729C13.0594 37.7156 13.1216 37.7667 13.2971 37.8968C13.3314 37.9608 13.3658 38.0248 13.4001 38.0889C13.0494 38.3517 12.9518 38.3294 12.5143 39.0536C12.2902 39.4246 12.3546 38.2941 11.159 37.4913C10.8944 37.3136 10.6327 37.3474 10.8521 37.1226C11.8573 36.0926 13.0784 36.3329 13.2864 36.3439H13.2863Z" fill="#FCF5E0"/>
<path fill-rule="evenodd" clip-rule="evenodd" d="M16.2859 4.79455C15.4329 4.19486 15.4299 4.19858 15.4098 4.17094C15.2696 3.97802 16.4577 2.79638 16.6207 2.88977C16.7711 2.97585 18.0702 4.81821 18.1911 4.98965C18.9975 6.13339 19.596 6.75731 19.1083 6.70824C18.8369 6.6809 18.859 6.62924 16.2859 4.79455Z" fill="#FCF5E2"/>
<path fill-rule="evenodd" clip-rule="evenodd" d="M29.4137 6.55383C28.2203 6.88129 26.921 7.39096 26.6754 7.2674C26.3027 7.07996 25.9291 6.92591 26.1774 6.75514C29.0536 4.77659 29.1459 4.55421 29.2935 4.80838C29.5739 5.29113 30.035 6.35044 29.759 6.44869C29.6457 6.48902 29.5271 6.51345 29.4137 6.55383Z" fill="#FCF5E2"/>
<path fill-rule="evenodd" clip-rule="evenodd" d="M26.054 6.00278C25.8811 6.12727 24.9237 6.88878 25.0133 6.37346C25.0227 6.31947 26.6622 4.10809 26.825 3.88255C27.2774 3.25589 27.535 2.74047 27.7967 2.97325C28.8829 3.93949 28.7764 4.07149 28.6929 4.15587C28.692 4.1567 26.1701 5.92648 26.0539 6.00283L26.054 6.00278Z" fill="#FCF5E2"/>
<path fill-rule="evenodd" clip-rule="evenodd" d="M29.6506 17.7052C29.6286 17.7258 29.2887 18.0429 29.2952 17.8282C29.3401 16.3302 29.3675 16.3276 29.3096 16.1434C29.2799 16.0488 29.3958 16.0364 29.1819 14.9099C29.102 14.4894 31.1739 14.1897 30.7459 15.7984C30.4218 17.0166 29.9577 17.3624 29.6506 17.7052Z" fill="#FBF3DC"/>
<path fill-rule="evenodd" clip-rule="evenodd" d="M22.0158 20.2193C21.2985 20.1828 21.4721 19.7824 20.7902 19.5568C20.0775 19.3211 20.8949 18.0702 21.0308 18.705C21.0839 18.953 20.7987 19.0927 21.1214 19.1841C21.6518 19.3343 21.8249 20.3079 22.4926 19.4336C22.7475 19.0998 23.317 19.2337 23.0638 18.9717C22.3433 18.2263 21.9393 17.9095 22.2457 16.052C22.3135 15.6407 22.7505 15.7235 22.686 16.0515C22.1592 18.7307 23.7735 18.4586 23.6594 19.1378C23.5776 19.6245 23.046 19.4425 22.7668 19.816C22.5198 20.1464 22.0833 20.2096 22.0158 20.2194V20.2193Z" fill="#C8773A"/>
<path fill-rule="evenodd" clip-rule="evenodd" d="M24.8322 61.9437C24.9368 61.9701 26.4033 62.3394 25.9502 62.6968C24.5166 63.8274 22.3629 62.7783 22.7162 62.4638C23.4153 61.8411 24.6583 61.9312 24.8322 61.9438V61.9437Z" fill="#FCF6E3"/>
<path fill-rule="evenodd" clip-rule="evenodd" d="M20.7816 61.9415C20.8869 61.9677 22.3786 62.3394 21.9044 62.7019C20.4189 63.8376 18.3727 62.7634 18.6738 62.4711C19.3222 61.8415 20.6081 61.9296 20.7816 61.9415Z" fill="#FDF6E3"/>
<path fill-rule="evenodd" clip-rule="evenodd" d="M22.964 64.2298C22.9707 64.395 23.0237 65.7052 22.4289 66.225C22.0221 66.5805 21.1368 64.1621 22.2305 62.9479C22.2411 62.9361 22.7315 62.7958 22.964 64.2298Z" fill="#FCF5E1"/>
<path fill-rule="evenodd" clip-rule="evenodd" d="M22.9657 60.8799C22.9489 60.9893 22.6575 62.8811 22.0507 61.9168C21.1828 60.5374 22.1257 58.6028 22.4242 58.8933C23.0157 59.4687 22.9715 60.7153 22.9657 60.8799Z" fill="#FCF5E1"/>
<path fill-rule="evenodd" clip-rule="evenodd" d="M15.76 7.70329C16.802 8.0057 16.9337 8.06797 16.7971 8.20215C16.1949 8.79356 16.1882 8.78067 15.6491 9.43306C15.2181 9.95459 13.6547 7.15919 14.3476 7.28985C14.4633 7.31164 14.4563 7.33307 15.76 7.70329H15.76Z" fill="#FCF5E2"/>
<path fill-rule="evenodd" clip-rule="evenodd" d="M11.1869 43.5203C11.7394 43.841 11.9279 44.1135 12.2414 43.9811C12.4019 43.9134 12.5307 43.9614 12.498 43.7122C12.563 43.7477 12.628 43.7832 12.693 43.8187C12.2058 44.4142 12.0177 44.3958 11.6253 44.4261C11.3647 44.4463 11.4534 44.8229 11.4396 44.8395C11.4256 44.8565 8.75976 44.8508 8.72187 44.8393C8.55492 44.7887 8.70442 43.8954 8.98583 43.9538C9.38329 44.0363 9.38484 44.0233 9.77563 43.9082C10.1161 43.808 9.67313 44.1698 9.74876 44.3396C9.90892 44.6993 10.7355 43.8364 11 43.6163L11.1869 43.5203V43.5203Z" fill="#FCF4E0"/>
<path fill-rule="evenodd" clip-rule="evenodd" d="M14.5287 15.8707C13.7839 16.0565 13.8828 17.1161 14.6119 17.2204C14.7129 17.2348 15.0416 18.3627 14.3939 17.6055C13.11 16.1045 13.1574 14.9641 13.8227 14.7314C14.8441 14.3741 14.8442 14.8155 14.8289 15.0914C14.8256 15.1526 14.7908 15.7809 14.6871 15.8444C14.6761 15.851 14.6753 15.8463 14.5287 15.8707Z" fill="#FCF5E1"/>
<path fill-rule="evenodd" clip-rule="evenodd" d="M22.1031 21.8626C23.1907 21.8468 23.1861 21.8166 23.8656 21.6776C24.2757 21.5937 23.2391 22.6525 22.7233 22.6939C21.3714 22.8025 21.26 22.88 20.2799 21.9384C20.0166 21.6856 20.4229 21.8519 22.1032 21.8626H22.1031Z" fill="#FCF5E2"/>
<path fill-rule="evenodd" clip-rule="evenodd" d="M28.0039 7.69565C28.8512 7.44599 28.8429 7.44252 29.6814 7.1853C30.0745 7.06474 29.8751 8.14248 29.12 9.07973C28.8756 9.38297 28.7011 8.83085 27.8013 8.07482C27.417 7.75192 27.8543 7.74306 28.0039 7.69565Z" fill="#FCF5E2"/>
<path fill-rule="evenodd" clip-rule="evenodd" d="M27.3911 40.8151C26.0575 41.0687 26.8908 39.8043 25.8501 38.4605C25.827 38.4307 25.4837 37.9874 25.8897 37.992C26.1219 37.9946 26.6825 38.6972 26.8582 39.7474C26.8679 39.8051 26.9697 40.4136 27.126 40.4288C27.3892 40.4542 27.6685 39.8946 27.3594 39.3229C27.2014 39.0307 27.0224 38.9632 27.3045 38.7904C27.617 38.599 28.5161 40.1665 27.3911 40.8151Z" fill="#C8773A"/>
<path fill-rule="evenodd" clip-rule="evenodd" d="M19.8129 14.8288C21.69 15.1944 21.5356 15.6485 21.4082 15.7201C21.1445 15.8683 21.1345 15.5661 20.3371 15.3736C17.7657 14.7529 17.6058 16.1797 17.1718 15.7943C16.8466 15.5055 17.8138 15.1045 18.0486 14.9957C18.921 14.5914 19.4724 14.7953 19.8129 14.8288Z" fill="#C8773A"/>
<path fill-rule="evenodd" clip-rule="evenodd" d="M25.0095 14.8315C25.5669 14.8146 25.7481 14.6353 26.7807 15.1584C26.8397 15.1883 27.4377 15.4913 27.4666 15.6206C27.6213 16.311 26.3512 15.2557 25.7147 15.245C23.7598 15.2125 23.4277 15.9329 23.1801 15.7612C23.0452 15.6676 22.8979 15.1698 25.0095 14.8315Z" fill="#C8773A"/>
<path fill-rule="evenodd" clip-rule="evenodd" d="M19.9612 39.1299C20.0097 38.7955 19.9707 38.7819 20.1782 38.5245C20.7263 37.8449 21.4248 38.3169 20.9617 38.5215C19.7298 39.066 20.9406 40.0096 20.0573 40.4123C19.1872 40.8091 18.8921 39.4345 19.5462 39.2953C20.0095 39.1966 19.5388 39.8416 19.667 39.983C19.7155 40.0364 20.0951 40.1478 19.9612 39.1298L19.9612 39.1299Z" fill="#C8773A"/>
<path fill-rule="evenodd" clip-rule="evenodd" d="M19.371 16.0718C19.3402 16.0702 18.7449 15.9734 18.3226 16.3307C17.9985 16.6049 17.9682 17.0049 17.6908 16.8643C16.9829 16.5055 19.3128 14.724 20.3302 16.1541C20.6997 16.6734 20.2875 17.0332 20.0963 16.6657C19.8646 16.2202 19.8606 16.1833 19.371 16.0717V16.0718Z" fill="#C8773A"/>
<path fill-rule="evenodd" clip-rule="evenodd" d="M25.0086 15.8779C24.4133 16.034 24.3643 16.0271 24.1064 16.578C23.9759 16.8566 23.5211 16.7584 23.7903 16.2419C24.5108 14.8601 26.9405 16.0029 26.7276 16.572C26.6521 16.7735 26.3612 16.2808 26.2227 16.1782C25.6839 15.7787 25.0349 15.8783 25.0086 15.8779Z" fill="#C8773A"/>
<path fill-rule="evenodd" clip-rule="evenodd" d="M31.8945 39.6728C31.9099 40.0667 32.8715 40.0618 32.9428 40.1811C33.3255 40.8216 31.349 40.4185 31.3473 39.659C31.3459 39.0338 32.3739 39.262 31.8945 39.6728Z" fill="#C8773A"/>
<path fill-rule="evenodd" clip-rule="evenodd" d="M11.1019 42.7025C10.963 42.4563 10.9507 42.4105 10.9432 42.3829C10.8082 41.8817 10.7525 41.9047 10.7453 41.8606C10.7364 41.8062 11.0542 41.3415 11.3293 42.2255C11.488 42.7355 11.7219 41.8889 12.0584 41.9816C12.5439 42.1155 11.6253 42.9538 11.4633 42.8773C11.2791 42.7904 11.2957 42.7661 11.1019 42.7025Z" fill="#C8773A"/>
<path fill-rule="evenodd" clip-rule="evenodd" d="M36.532 38.9788C36.339 38.8597 36.2348 38.9188 36.2534 38.6876C36.309 37.9978 38.0722 39.5446 37.5807 39.895C37.1924 40.1717 37.4078 39.5678 36.532 38.9788Z" fill="#C8773A"/>
<path fill-rule="evenodd" clip-rule="evenodd" d="M29.5625 17.035C29.6237 16.595 29.7965 16.5538 29.514 16.2031C29.5094 16.1974 29.4717 15.9208 29.5043 15.892C29.9508 15.4968 30.493 16.8257 29.7614 17.1829C29.6665 17.2293 29.6728 17.1843 29.5816 17.123L29.5625 17.035Z" fill="#C8773A"/>
<path fill-rule="evenodd" clip-rule="evenodd" d="M30.9433 36.7499C30.9692 36.726 30.9205 36.6509 31.261 36.5583C31.9287 36.3767 32.9925 36.6879 32.4091 36.9349C32.318 36.9734 32.3113 36.8721 31.1727 36.9451C31.0423 36.9535 31.0694 36.9052 30.9433 36.7499Z" fill="#C8773A"/>
<path fill-rule="evenodd" clip-rule="evenodd" d="M12.7653 42.7892C13.0179 42.7961 13.0807 42.6972 13.1943 42.9228C13.3571 43.2462 12.4023 43.2376 12.1508 43.2545C11.9222 43.27 11.7853 43.0879 11.9112 42.9417C12.0738 42.7529 12.1184 42.8453 12.7653 42.7892Z" fill="#C8773A"/>
<path fill-rule="evenodd" clip-rule="evenodd" d="M38.5865 44.4865C38.5686 44.4619 38.4171 44.2545 38.4132 44.1484C38.4119 44.1127 38.4373 43.5059 38.8599 44.1323C38.9632 44.2853 39.1876 44.1061 39.2799 44.1141C39.6535 44.1464 39.3294 44.9685 38.5865 44.4865Z" fill="#C8773A"/>
<path fill-rule="evenodd" clip-rule="evenodd" d="M30.268 37.7851C30.2406 37.8043 29.8281 38.0928 29.8553 37.7217C29.8773 37.4229 30.9311 36.4582 30.8127 37.1026C30.7996 37.1738 30.7841 37.166 30.268 37.7851L30.268 37.7851Z" fill="#C8773A"/>
<path fill-rule="evenodd" clip-rule="evenodd" d="M10.319 42.9259C10.139 43.0374 10.1205 43.13 9.96748 42.9872C9.70767 42.7446 9.70922 42.7428 9.69033 42.7331C9.06644 42.4133 9.60947 42.2371 9.77496 42.2985C10.1895 42.4521 10.1203 42.5365 10.319 42.9259Z" fill="#C8773A"/>
<path fill-rule="evenodd" clip-rule="evenodd" d="M41.1306 43.7006C40.9506 43.7844 40.9514 43.7831 40.9362 43.791C40.8786 43.8213 40.8991 43.8369 40.8408 43.8675C40.8368 43.676 40.3994 43.2955 40.6324 42.9336C40.9577 42.4284 40.9715 43.1254 41.1306 43.7006Z" fill="#C8773A"/>
<path fill-rule="evenodd" clip-rule="evenodd" d="M10.906 42.823C10.7105 43.1 10.6351 42.9315 10.4904 42.8751C10.3616 42.5797 10.1392 42.1801 10.3885 42.0341C10.6183 41.8995 10.5655 42.1021 10.906 42.823Z" fill="#C8773A"/>
<path fill-rule="evenodd" clip-rule="evenodd" d="M25.2672 41.9587C24.6048 41.4669 25.2598 41.4369 25.2669 41.4396C25.2671 41.4397 25.7841 41.7614 25.7974 41.7763C25.8274 41.8097 25.9848 42.3294 25.2672 41.9586V41.9587Z" fill="#C8773A"/>
<path fill-rule="evenodd" clip-rule="evenodd" d="M35.4006 39.1465C34.7977 39.0683 35.0561 38.8268 35.0882 38.8087C35.2487 38.7179 35.6367 38.7049 35.7644 38.7475C35.8054 38.7611 36.1464 39.0888 35.4006 39.1465Z" fill="#C8773A"/>
<path fill-rule="evenodd" clip-rule="evenodd" d="M39.2806 43.0036C39.232 43.727 38.8615 43.1725 38.808 43.1232C38.2565 42.6147 38.9917 42.6066 39.1819 42.8333C39.1819 42.8333 39.2727 42.99 39.2806 43.0036Z" fill="#C8773A"/>
<path fill-rule="evenodd" clip-rule="evenodd" d="M39.7128 43.2034C40.3748 43.4937 40.1082 44.0047 39.8018 43.8003C39.0738 43.3148 39.665 43.2098 39.7128 43.2034Z" fill="#C8773A"/>
<path fill-rule="evenodd" clip-rule="evenodd" d="M41.1305 43.7007C41.1676 43.7344 41.4993 44.0348 40.9363 44.2968C40.6602 44.4252 40.3172 44.1014 40.8406 43.8676C40.8989 43.8369 40.8785 43.8214 40.9361 43.7911C40.9513 43.7831 40.9505 43.7844 41.1305 43.7007Z" fill="#C8773A"/>
<path fill-rule="evenodd" clip-rule="evenodd" d="M38.2044 42.2952C38.7184 41.772 38.9931 42.2445 38.9953 42.3016C38.9995 42.4087 38.3474 42.8206 38.2044 42.2952Z" fill="#C8773A"/>
<path fill-rule="evenodd" clip-rule="evenodd" d="M40.3235 42.3963C40.7664 42.9894 40.1887 42.8846 40.1013 42.7974C39.7719 42.4688 39.8719 42.3387 39.8979 42.3049C40.0685 42.0831 40.1203 42.2073 40.3235 42.3963Z" fill="#C8773A"/>
<path fill-rule="evenodd" clip-rule="evenodd" d="M33.6298 42.4637C34.0589 42.2816 34.1019 42.6557 33.7885 42.8789C33.5816 43.0261 33.1531 42.8382 33.6298 42.4637Z" fill="#C8773A"/>
<path fill-rule="evenodd" clip-rule="evenodd" d="M32.6932 43.2706C32.705 43.2396 32.8642 42.8223 33.078 43.1152C33.2853 43.3991 32.7557 43.8992 32.6932 43.2706Z" fill="#C8773A"/>
<path fill-rule="evenodd" clip-rule="evenodd" d="M21.4797 23.1347C21.617 23.1186 21.61 23.1197 21.7515 23.1351C21.5724 23.4574 22.1488 23.3652 22.1722 23.3726C22.4536 23.4611 21.4775 23.8833 21.4797 23.1347Z" fill="#C8773A"/>
<path fill-rule="evenodd" clip-rule="evenodd" d="M11.1957 38.4026C11.3621 38.6202 11.4146 38.7331 11.0895 38.8374C10.6748 38.9704 10.7485 38.7413 10.7716 38.7274C10.9164 38.64 10.9194 38.6529 11.0383 38.523C11.0908 38.4829 11.1432 38.4428 11.1957 38.4026Z" fill="#F7EBCB"/>
<path fill-rule="evenodd" clip-rule="evenodd" d="M10.4829 38.1602C10.5419 38.2286 10.601 38.2971 10.66 38.3656C10.4257 38.5803 10.0852 38.8064 10.0327 38.8413C9.98613 38.8504 9.93954 38.8596 9.893 38.8688C10.1118 38.2944 10.3956 38.4817 10.5061 38.2473C10.5189 38.2201 10.4701 38.1873 10.4829 38.1602Z" fill="#E2BE60"/>
<path fill-rule="evenodd" clip-rule="evenodd" d="M13.286 36.344C13.5394 36.3656 13.5456 36.3454 13.7374 36.5048C13.6402 36.6059 13.6171 36.7781 13.5454 36.813C13.2383 36.9627 13.3445 36.585 13.286 36.344Z" fill="#D9AB32"/>
<path fill-rule="evenodd" clip-rule="evenodd" d="M36.456 43.6247C36.8578 43.9921 36.3087 44.1788 36.1738 43.8967C36.0262 43.5881 36.4247 43.622 36.456 43.6247Z" fill="#C8773A"/>
<path fill-rule="evenodd" clip-rule="evenodd" d="M14.553 17.0377C14.4238 16.4594 14.5054 16.0799 14.6844 16.3361C14.7455 16.4235 14.6887 16.9927 14.6431 17.0539C14.6249 17.0783 14.5713 17.0133 14.553 17.0377Z" fill="#F2E1B3"/>
<path fill-rule="evenodd" clip-rule="evenodd" d="M14.0716 39.3047C14.0852 39.2812 14.229 39.0328 14.387 39.1782C14.5867 39.362 14.2168 39.7857 14.0716 39.3047Z" fill="#C8773A"/>
<path fill-rule="evenodd" clip-rule="evenodd" d="M15.8502 38.9539C16.2828 39.0884 15.9762 39.4574 15.7514 39.32C15.4713 39.1489 15.8232 38.9678 15.8502 38.9539Z" fill="#C8773A"/>
<path fill-rule="evenodd" clip-rule="evenodd" d="M24.3922 35.342C24.3653 35.3279 23.9784 35.1262 24.2945 34.9744C24.4628 34.8936 24.8356 35.1586 24.3922 35.342Z" fill="#C8773A"/>
<path fill-rule="evenodd" clip-rule="evenodd" d="M18.1748 35.8669C18.1653 35.8959 18.0347 36.2934 17.8248 36.0185C17.7198 35.8808 17.9312 35.4288 18.1748 35.8669Z" fill="#C8773A"/>
<path fill-rule="evenodd" clip-rule="evenodd" d="M20.3403 35.9368C20.3106 35.9275 19.937 35.8107 20.2227 35.5658C20.3135 35.488 20.8256 35.6341 20.3403 35.9368Z" fill="#C8773A"/>
<path fill-rule="evenodd" clip-rule="evenodd" d="M15.1437 43.6431C15.1696 43.6603 15.5123 43.8879 15.2152 44.0261C15.0149 44.1192 14.7198 43.7496 15.1437 43.6431Z" fill="#C8773A"/>
<path fill-rule="evenodd" clip-rule="evenodd" d="M27.8181 36.4853C27.8005 36.5069 27.5727 36.7852 27.4694 36.4912C27.3949 36.279 27.7906 35.9422 27.8181 36.4853Z" fill="#C8773A"/>
<path fill-rule="evenodd" clip-rule="evenodd" d="M34.6979 43.7C34.3045 43.4502 34.733 43.2229 34.8691 43.3608C35.1215 43.6166 34.7278 43.6942 34.6979 43.7Z" fill="#C8773A"/>
<path fill-rule="evenodd" clip-rule="evenodd" d="M16.6468 39.8354C16.8207 39.3926 17.0658 39.7678 17.0116 39.9323C16.883 40.3229 16.6599 39.8626 16.6468 39.8354Z" fill="#C8773A"/>
<path fill-rule="evenodd" clip-rule="evenodd" d="M15.8498 40.7228C15.8249 40.7097 15.5946 40.5882 15.7181 40.3956C15.8601 40.1741 16.3492 40.5661 15.8498 40.7228Z" fill="#C8773A"/>
<path fill-rule="evenodd" clip-rule="evenodd" d="M23.1436 40.8902C22.953 41.3296 22.6076 40.7754 22.8845 40.6898C23.0733 40.6313 23.067 40.7051 23.1436 40.8902Z" fill="#C8773A"/>
<path fill-rule="evenodd" clip-rule="evenodd" d="M16.5551 35.8625C16.5826 35.8768 16.9757 36.0817 16.6513 36.2374C16.486 36.3167 16.103 36.0735 16.5551 35.8625Z" fill="#C8773A"/>
<path fill-rule="evenodd" clip-rule="evenodd" d="M18.7062 44.0646C18.9506 43.5933 19.1587 44.067 19.0614 44.1788C18.8882 44.3778 18.8081 44.3069 18.7062 44.0646Z" fill="#C8773A"/>
<path fill-rule="evenodd" clip-rule="evenodd" d="M12.6786 37.1029C12.8951 37.0963 12.9767 37.0674 12.9634 37.2829C12.944 37.5966 12.3938 37.4563 12.6786 37.1029Z" fill="#C8773A"/>
<path fill-rule="evenodd" clip-rule="evenodd" d="M18.1386 42.2778C18.614 42.4557 18.2045 42.73 18.0554 42.6476C17.7363 42.4711 18.1113 42.2909 18.1386 42.2778Z" fill="#C8773A"/>
<path fill-rule="evenodd" clip-rule="evenodd" d="M28.4475 36.6785C28.4743 36.682 28.7543 36.7193 28.6822 36.9219C28.5704 37.2363 28.0896 36.9368 28.4475 36.6785Z" fill="#C8773A"/>
<path fill-rule="evenodd" clip-rule="evenodd" d="M16.0233 42.6533C16.1619 42.2172 16.4598 42.5414 16.3752 42.7395C16.2134 43.1183 16.0343 42.6801 16.0233 42.6533Z" fill="#C8773A"/>
<path fill-rule="evenodd" clip-rule="evenodd" d="M29.3766 36.3111C29.3621 36.3371 29.1506 36.7177 29.0118 36.3819C28.9674 36.2746 29.1587 35.7785 29.3766 36.3111Z" fill="#C8773A"/>
<path fill-rule="evenodd" clip-rule="evenodd" d="M28.3576 36.0352C27.957 35.7884 28.3986 35.5491 28.5273 35.7002C28.6933 35.8953 28.5973 35.9411 28.3576 36.0352Z" fill="#C8773A"/>
<path fill-rule="evenodd" clip-rule="evenodd" d="M13.5829 40.8635C13.5698 40.8381 13.4247 40.5555 13.6406 40.5111C13.8677 40.4645 14.0968 40.9696 13.5829 40.8635Z" fill="#C8773A"/>
<path fill-rule="evenodd" clip-rule="evenodd" d="M35.6949 42.919C35.9462 42.4288 36.0949 42.9147 36.0482 43.0219C35.8935 43.3772 35.7066 42.946 35.6949 42.919Z" fill="#C8773A"/>
<path fill-rule="evenodd" clip-rule="evenodd" d="M27.6104 35.5159C27.3489 35.9683 27.1376 35.4932 27.3 35.3457C27.486 35.1769 27.6007 35.4893 27.6104 35.5159Z" fill="#C8773A"/>
<path fill-rule="evenodd" clip-rule="evenodd" d="M20.5175 42.0362C20.4899 42.0279 20.1423 41.924 20.3653 41.7091C20.5162 41.5637 20.9475 41.8101 20.5175 42.0362Z" fill="#C8773A"/>
<path fill-rule="evenodd" clip-rule="evenodd" d="M35.5571 44.1686C35.5655 44.1965 35.6649 44.5262 35.4011 44.4975C35.2693 44.4832 35.0179 43.9913 35.5571 44.1686Z" fill="#C8773A"/>
<path fill-rule="evenodd" clip-rule="evenodd" d="M22.6277 43.7104C22.6202 43.7382 22.5235 44.092 22.3026 43.8632C22.2135 43.7709 22.3076 43.229 22.6277 43.7104Z" fill="#C8773A"/>
<path fill-rule="evenodd" clip-rule="evenodd" d="M21.9352 43.2696C21.7779 43.7569 21.4557 43.3119 21.6298 43.1526C21.7982 42.9987 21.8613 43.0552 21.9352 43.2696Z" fill="#C8773A"/>
<path fill-rule="evenodd" clip-rule="evenodd" d="M23.5116 44.2324C23.9888 44.3762 23.6004 44.6655 23.4309 44.58C23.1248 44.4256 23.4861 44.2452 23.5116 44.2324Z" fill="#C8773A"/>
<path fill-rule="evenodd" clip-rule="evenodd" d="M26.5869 36.4722C26.5567 36.4709 26.1765 36.4549 26.36 36.1695C26.463 36.0093 26.9133 36.1828 26.5869 36.4722Z" fill="#C8773A"/>
<path fill-rule="evenodd" clip-rule="evenodd" d="M16.2194 44.5052C16.203 44.5278 16.0157 44.7859 15.8781 44.5746C15.7761 44.4177 16.0835 43.9583 16.2194 44.5052Z" fill="#C8773A"/>
<path fill-rule="evenodd" clip-rule="evenodd" d="M23.7755 34.2872C23.4757 34.6989 23.2645 34.115 23.5255 34.0601C23.7318 34.0168 23.7335 34.0842 23.7755 34.2872Z" fill="#D5A31E"/>
<path fill-rule="evenodd" clip-rule="evenodd" d="M12.2675 37.0964C12.2618 37.1262 12.1727 37.5976 11.9248 37.2579C11.8877 37.207 11.9141 36.7231 12.2675 37.0964Z" fill="#C8773A"/>
<path fill-rule="evenodd" clip-rule="evenodd" d="M17.0616 37.6288C17.3678 37.2114 17.4538 37.6918 17.3952 37.781C17.1759 38.1154 17.0683 37.6574 17.0616 37.6288Z" fill="#C8773A"/>
<path fill-rule="evenodd" clip-rule="evenodd" d="M23.6072 40.1504C23.1268 39.6503 23.7679 39.814 23.7824 39.8299C23.9664 40.0306 23.6349 40.1412 23.6072 40.1504Z" fill="#C8773A"/>
<path fill-rule="evenodd" clip-rule="evenodd" d="M24.5086 36.7534C24.3268 36.9898 24.1433 37.0518 24.1415 36.7529C24.141 36.657 24.2309 36.5718 24.3025 36.5634C24.4664 36.5443 24.4494 36.5943 24.5086 36.7534Z" fill="#C8773A"/>
<path fill-rule="evenodd" clip-rule="evenodd" d="M34.7892 42.5591C34.7322 42.4164 34.6592 42.4016 34.7706 42.2893C34.8531 42.2061 35.014 42.2369 35.0527 42.2978C35.2763 42.65 34.8184 42.5646 34.7892 42.5591Z" fill="#C8773A"/>
<path fill-rule="evenodd" clip-rule="evenodd" d="M13.5376 37.7251C13.4264 37.8369 13.4337 37.8325 13.2973 37.8967C13.1218 37.7667 13.0595 37.7156 13.2294 37.5728C13.4028 37.4272 13.4355 37.5221 13.5376 37.7251Z" fill="#C8773A"/>
<path fill-rule="evenodd" clip-rule="evenodd" d="M24.0989 43.1754C24.2296 43.026 24.2551 42.9567 24.3978 43.088C24.5775 43.2533 24.2098 43.623 24.0989 43.1754Z" fill="#C8773A"/>
<path fill-rule="evenodd" clip-rule="evenodd" d="M7.74588 39.5726C8.21603 39.3933 8.24455 39.4489 8.2637 39.4863C8.37785 39.7088 7.70064 39.7194 7.64794 39.7202C7.68061 39.671 7.71322 39.6218 7.74588 39.5726Z" fill="#E1BD5E"/>
<path fill-rule="evenodd" clip-rule="evenodd" d="M13.5377 37.7251C13.5773 37.7908 13.6169 37.8565 13.6565 37.9222C13.5371 38.0262 13.5336 38.0111 13.4003 38.0889C13.3659 38.0249 13.3316 37.9608 13.2973 37.8968C13.4338 37.8326 13.4265 37.8369 13.5377 37.7251L13.5377 37.7251Z" fill="#EACF88"/>
<path fill-rule="evenodd" clip-rule="evenodd" d="M17.9632 40.9798C18.0041 40.8507 17.9925 40.7851 18.1166 40.8418C18.2443 40.9001 18.1607 41.2888 17.9632 40.9798Z" fill="#E3C066"/>
<path fill-rule="evenodd" clip-rule="evenodd" d="M18.1187 39.7422C18.1175 39.7621 18.1029 39.9907 18.1029 39.9907C18.0777 40.0211 18.0096 39.9613 17.9843 39.9917L18.047 39.9114C18.0556 39.8877 18.0669 39.9019 18.0775 39.8726C18.0813 39.8623 18.0806 39.863 18.1187 39.7422H18.1187Z" fill="#DCB344"/>
<path fill-rule="evenodd" clip-rule="evenodd" d="M11.1877 43.5207L10.9998 43.6172C11.0836 43.4718 11.0762 43.4636 11.0903 43.4602C11.1275 43.4512 11.1505 43.5297 11.1877 43.5207Z" fill="#EDD698"/>
<path fill-rule="evenodd" clip-rule="evenodd" d="M17.9657 39.9219L18.0471 39.9114L17.9844 39.9916L17.9657 39.9219Z" fill="#DAAE39"/>
</svg>
